<svg xmlns="http://www.w3.org/2000/svg" viewBox="0 0 200 200"><g data-name="Layer 2"><g data-name="Layer 1"><circle cx="100" cy="100" r="100" style="mix-blend-mode:multiply" fill="#f4f4f4"/><path d="M44.62 72.11a3 3 0 0 1-2.39-4.81c5.7-7.51 15.68-12.37 25.44-12.37h21.89a3 3 0 0 1 0 6H67.67a26.7 26.7 0 0 0-11.85 2.88A25.46 25.46 0 0 0 47 70.92a3 3 0 0 1-2.38 1.19zm5.71 15.84a3 3 0 0 1-2.94-3.6 21.28 21.28 0 0 1 6.14-10.48l4 4.49a15.28 15.28 0 0 0-4.25 7.2 3 3 0 0 1-2.95 2.39zm88.07 33.13a44 44 0 0 1-15.24 16.1v3.07a18.07 18.07 0 0 0 6.75 14.13 3 3 0 1 1-3.77 4.67 24.15 24.15 0 0 1-9-18.74 43.89 43.89 0 0 1-34.33 0 24.15 24.15 0 0 1-9 18.74 3 3 0 0 1-3.77-4.67 18.07 18.07 0 0 0 6.75-14.13v-3.07a44 44 0 0 1-15.24-16.1 3 3 0 1 1 5.26-2.89 37.81 37.81 0 0 0 66.29 0 3 3 0 1 1 5.26 2.89zm-51.62.1a3 3 0 0 1 4.2-.57 19.66 19.66 0 0 0 12 4 3 3 0 0 1 0 6 25.61 25.61 0 0 1-15.61-5.25 3 3 0 0 1-.59-4.18zm54.68-20h-3.16a21.33 21.33 0 0 1-4 10.37 18.24 18.24 0 0 1-28.22 0 22.13 22.13 0 0 1-4.21-13.37 15.35 15.35 0 0 1 .65-4.53 3 3 0 0 1-.61.06h-3.8a3 3 0 0 1-.61-.06 15.35 15.35 0 0 1 .65 4.53 22.13 22.13 0 0 1-4.21 13.37 17 17 0 0 1-14.11 6.68 17 17 0 0 1-14.11-6.68 21.33 21.33 0 0 1-4-10.37h-3.18a3 3 0 0 1 0-6h3.25a13.53 13.53 0 0 1 5.43-8.54A21.1 21.1 0 0 1 79.84 83a21.1 21.1 0 0 1 12.61 3.65 14.29 14.29 0 0 1 2.93 2.86 3 3 0 0 1 2.74-1.78h3.78a3 3 0 0 1 2.74 1.78 14.29 14.29 0 0 1 2.93-2.86A21.1 21.1 0 0 1 120.16 83a21.1 21.1 0 0 1 12.61 3.65 13.53 13.53 0 0 1 5.43 8.54h3.25a3 3 0 0 1 0 6zm7.7-17.44v.06c0 .07 0 .14-.07.22l-.09.22-.1.2-.11.17-.11.15v.06l-.12.14-.12.11-.17.14a3 3 0 0 1-.83.44l-.21.06h-1.46l-.18-.05a3 3 0 0 1-.51-.22H145l-.11-.07-.18-.13-.08-.07-.08-.07-15.47-13.99a3 3 0 0 1 4.09-4.39l11.24 10.49c.78-5.11.56-10.53-2.62-13.8s-7-4.72-11.13-4a14.46 14.46 0 0 0-5.31 2 3 3 0 0 1-4.7-2.15 45.78 45.78 0 0 0-3.51-12.51 23.22 23.22 0 0 0-5.69-8 13.48 13.48 0 0 0-9.16-3.38 28.7 28.7 0 0 0-13.52 3 39.15 39.15 0 0 1 7.13 2.58 26.67 26.67 0 0 1 9 6.78 18.31 18.31 0 0 1 4.45 9.69l-6 .45A12.92 12.92 0 0 0 100 51.2a21.17 21.17 0 0 0-7-5.07 40.69 40.69 0 0 0-12.75-3.31c-5.17 2.61-11.92 5.27-22.78 6.56a3 3 0 1 1-.71-6c12.91-1.54 19.25-5 24.83-8.13s10.88-6 20.7-6c8.86 0 15.91 5.21 20.37 15.08a50.35 50.35 0 0 1 3.25 10.09 20.55 20.55 0 0 1 3.78-1c4.24-.69 10.53-.25 16.4 5.79 2.86 2.94 4.43 7 4.66 12.05a41.83 41.83 0 0 1-1.59 12.49zM146.18 86zM145.47 85.92l.01.01-.01-.01zM148.05 85.42a3 3 0 0 1-.83.44 3 3 0 0 0 .83-.44zM145.28 85.87a3 3 0 0 1-.51-.22 3 3 0 0 0 .51.22z"/><path d="M148.44 85.07l.12-.14-.13.14zM144.2 85.22l.08.07-.1-.09zM149.15 83.8v.06z"/><path fill="#f4f4f4" d="M73.23 95.22a5.44 5.44 0 0 0-1.48 2.59 2.5 2.5 0 0 1-4.21 1.39l-.14-.2a2.49 2.49 0 0 1-.58-2c0-.07 0-.27.12-.57a10.42 10.42 0 0 1 2.86-4.85 2.5 2.5 0 1 1 3.44 3.63zm40.33 0a5.44 5.44 0 0 0-1.48 2.59 2.5 2.5 0 0 1-4.93-.81 10.29 10.29 0 0 1 3-5.41 2.5 2.5 0 1 1 3.44 3.63z"/><path fill="#4782b2" d="M100 170.32a76.47 76.47 0 0 1-37.38-9.69l-26.55 16.26a100 100 0 0 0 127.87 0l-26.55-16.27a76.47 76.47 0 0 1-37.39 9.7z"/></g></g></svg>