<svg xmlns="http://www.w3.org/2000/svg" viewBox="0 0 200 200"><defs><style>.cls-3{fill:#ea9d7f}</style></defs><g style="isolation:isolate"><g id="Layer_2" data-name="Layer 2"><g id="Layer_1-2" data-name="Layer 1"><circle cx="100" cy="100" r="100" style="mix-blend-mode:multiply" fill="#f4f4f4"/><path d="M123.49 148.15L112 159.34l-9.89-10.22a3 3 0 0 0-4.24-.07l-10.23 9.9-11.24-11.54a3 3 0 1 0-4.3 4.18l13.28 13.68a3 3 0 0 0 4.24.07l10.23-9.9 9.9 10.23a3 3 0 0 0 2.11.91 3 3 0 0 0 2.09-.85l13.68-13.28a3 3 0 0 0-4.18-4.3zM58.68 77.67l14.11-14.11a115.1 115.1 0 0 0 34 6.49h2.91A101.4 101.4 0 0 0 129.76 68 24 24 0 0 0 144 59.57a17.78 17.78 0 0 0 3.92-14.36 18.36 18.36 0 0 0-2.92-6.9 18.94 18.94 0 0 0-5.93-5.52c-5.24-3.15-12.24-4.33-20.8-3.49a61.15 61.15 0 0 0-25.47 8.31A84.06 84.06 0 0 0 71.56 56a13.92 13.92 0 0 0-17.12 21.67 3 3 0 0 0 4.24 0zM100 186.3a3 3 0 1 0 3 3 3 3 0 0 0-3-3zM100 170.2a3 3 0 1 0 3 3 3 3 0 0 0-3-3z"/><path d="M123.21 75.74a21.09 21.09 0 0 0-17.69 9.62H94.47a21 21 0 1 0 2.68 6h5.7a21.09 21.09 0 1 0 20.37-15.62zm-46.42 36.17a15.09 15.09 0 1 1 15.08-15.09 15.1 15.1 0 0 1-15.08 15.09zm46.43 0a15.09 15.09 0 1 1 15.08-15.09 15.1 15.1 0 0 1-15.09 15.09z"/><path d="M136.59 118.33a3 3 0 0 0-4.11 1 37.81 37.81 0 0 1-64.94 0 3 3 0 0 0-5.15 3.08 43.81 43.81 0 0 0 75.24 0 3 3 0 0 0-1.04-4.08z"/><path d="M114.82 124.82a3 3 0 1 0-4.24-4.24 15 15 0 0 1-21.16 0 3 3 0 0 0-4.24 4.24 21 21 0 0 0 29.64 0z"/><path d="M23 163.85a100.13 100.13 0 0 0 46.5 31.41V145.7zM130.5 195.26a100.13 100.13 0 0 0 46.5-31.41l-46.5-18.15z" class="cls-3"/></g></g></g></svg>