<svg xmlns="http://www.w3.org/2000/svg" viewBox="0 0 200 200"><g data-name="Layer 2"><g data-name="Layer 1"><circle cx="100" cy="100" r="100" style="mix-blend-mode:multiply" fill="#f4f4f4"/><path d="M81.11 138.69l.41.23a3 3 0 0 0-.41-.23zM118.48 138.92l.41-.23a3 3 0 0 0-.41.23zM129.45 77.23H114.6a11.33 11.33 0 0 0-9.94 5.89h-9.33a11.33 11.33 0 0 0-9.94-5.89H70.55a11.34 11.34 0 0 0-11.33 11.33v1.17a11.34 11.34 0 0 0 11.33 11.33H85.4a11.34 11.34 0 0 0 11.32-11.33v-.6h6.55v.6a11.34 11.34 0 0 0 11.33 11.33h14.85a11.34 11.34 0 0 0 11.33-11.33v-1.17a11.34 11.34 0 0 0-11.33-11.33zm-38.73 12.5a5.33 5.33 0 0 1-5.33 5.33H70.55a5.33 5.33 0 0 1-5.33-5.33v-1.17a5.33 5.33 0 0 1 5.33-5.33H85.4a5.33 5.33 0 0 1 5.33 5.33zm44.06 0a5.33 5.33 0 0 1-5.33 5.33H114.6a5.33 5.33 0 0 1-5.33-5.33v-1.17a5.33 5.33 0 0 1 5.33-5.33h14.85a5.33 5.33 0 0 1 5.33 5.33zM128.37 106.66H71.63a3 3 0 0 0-3 3.39 31.62 31.62 0 0 0 62.7 0 3 3 0 0 0-3-3.39zM60.44 76.4a3 3 0 0 0 3-3c0-8.57 1.72-16.3 4.85-21.76 3.69-6.44 8.08-7.79 11.12-7.79h.7a32.67 32.67 0 0 0-6.29 11.23c-1.94 6.43.23 9 1.69 10a6.82 6.82 0 0 0 5.34 1c3.15-.68 6.15-3.36 8.88-7.75 3.1-5 3.58-10.25 1.29-14.35a10.89 10.89 0 0 0-.7-1.09 14.42 14.42 0 0 1 7.39-2.14 10.64 10.64 0 0 1 2.84.38 26.5 26.5 0 0 0-7.09 11.21c-1.37 4.56-.68 8.15 1.91 9.86a6.82 6.82 0 0 0 5.34 1c3.09-.68 6.16-3.36 8.88-7.75 2.86-4.62 3.21-9.61 1-13.69a15.12 15.12 0 0 1 5.38-1 7.87 7.87 0 0 1 5.23 2.09 21.22 21.22 0 0 0-2.91 2 21.6 21.6 0 0 0-6.73 10 13.23 13.23 0 0 0-.57 5.43 6.41 6.41 0 0 0 2.73 4.76 6.82 6.82 0 0 0 5.34 1c3.09-.68 6.16-3.36 8.88-7.75a15.67 15.67 0 0 0 1.93-12.24 17.44 17.44 0 0 1 2.34-.15c2 0 4.62 2.46 5.41 6.42a11 11 0 0 1-1.31 7.68c-1.72 3-4.81 5.47-9.18 7.29a3 3 0 1 0 2.3 5.54c5.63-2.34 9.69-5.65 12.09-9.86a17.14 17.14 0 0 0 1.95-11.84 16 16 0 0 0-3.89-7.75 10.26 10.26 0 0 0-7.4-3.49 22.64 22.64 0 0 0-5.06.56 14.16 14.16 0 0 0-11.18-5.74 21.28 21.28 0 0 0-9.77 2.37 15.75 15.75 0 0 0-8.45-2.37A21 21 0 0 0 85.34 39a15.1 15.1 0 0 0-5.93-1.14c-6.53 0-12.33 3.84-16.32 10.81C59.45 55 57.44 63.8 57.44 73.4a3 3 0 0 0 3 3zm62.36-21.23c-2.07 3.36-4 4.81-5.06 5a.86.86 0 0 1-.69-.08c-.3-.49-.41-2.69 1.07-5.63a16.17 16.17 0 0 1 6-6.45 9.77 9.77 0 0 1-1.31 7.16zm-17.4-10.34c1.06 2.13.74 4.76-.92 7.44-2.07 3.36-4 4.81-5.06 5a.9.9 0 0 1-.58 0c-.25-.81 0-3.71 2.26-7.36a21.36 21.36 0 0 1 4.31-5.08zm-19.75 1.84l.14.23c1.19 2.14.77 5.15-1.16 8.27-2.07 3.36-4 4.81-5.06 5a1 1 0 0 1-.48 0A8 8 0 0 1 79.5 57a24.85 24.85 0 0 1 3.11-6.53 27.7 27.7 0 0 1 3.04-3.8zM34.44 100a3 3 0 0 0-3-3H16.91a3 3 0 0 0 0 6h14.53a3 3 0 0 0 3-3zM161.63 73.87a3 3 0 0 0 1.17-.24l13.37-5.68a3 3 0 1 0-2.35-5.52l-13.36 5.67a3 3 0 0 0 1.17 5.76zM176.18 132.05l-13.37-5.68a3 3 0 1 0-2.35 5.52l13.37 5.68a3 3 0 1 0 2.35-5.52zM183.09 97h-14.53a3 3 0 0 0 0 6h14.53a3 3 0 0 0 0-6zM37.19 126.37l-13.37 5.68a3 3 0 1 0 2.35 5.52l13.37-5.68a3 3 0 1 0-2.35-5.52zM39.54 68.1l-13.37-5.68a3 3 0 1 0-2.35 5.52l13.37 5.68a3 3 0 1 0 2.35-5.52z"/><path d="M140.8 102.92a3 3 0 0 0-3 3 37.55 37.55 0 0 1-11.07 26.73 38 38 0 0 1-7.84 6 3 3 0 0 0-.41.23 37.93 37.93 0 0 1-37 0 3 3 0 0 0-.41-.23 38 38 0 0 1-7.84-6 37.55 37.55 0 0 1-11.03-26.73 3 3 0 0 0-6 0 43.85 43.85 0 0 0 20.64 37.18v15.3a3 3 0 0 0 6 0v-12.17h.11a43.93 43.93 0 0 0 34.1 0h.11v12.17a3 3 0 0 0 6 0v-15.3a43.74 43.74 0 0 0 20.64-37.18 3 3 0 0 0-3-3z"/><path fill="#f3d26a" d="M125.14 163.75a49 49 0 0 1-50.29 0l-36.49 15a100 100 0 0 0 123.28 0l-36.49-15z"/></g></g></svg>