<svg xmlns="http://www.w3.org/2000/svg" viewBox="0 0 200 200"><g data-name="Layer 2"><g data-name="Layer 1"><circle cx="100" cy="100" r="100" style="mix-blend-mode:multiply" fill="#f4f4f4"/><path d="M137.36 97V69.79a3 3 0 0 0-3-3h-27.24a3 3 0 0 0-3 3v8.1h-15.2l-7.49-13a3 3 0 0 0-5.2 0l-19.63 34a3 3 0 0 0 2.6 4.5h39.26a3 3 0 0 0 2.6-4.5l-8.67-15h11.74V97a3 3 0 0 0 3 3h27.24a3 3 0 0 0 2.99-3zm-44.1.38H64.4l14.43-25zm38.1-3.38h-21.24V72.79h21.24zM88.85 120.92A11.15 11.15 0 1 0 100 109.77a11.17 11.17 0 0 0-11.15 11.15z"/><path d="M140.85 102.28a3 3 0 0 0-3.36 2.59 37.81 37.81 0 0 1-74.15 4.38 3 3 0 1 0-5.82 1.46 43.81 43.81 0 0 0 85.92-5.08 3 3 0 0 0-2.59-3.35z"/><path d="M171.17 98.24a12.06 12.06 0 0 0-2.6-20 12.06 12.06 0 0 0-7.65-18.37 12.08 12.08 0 0 0-13.63-15.4 12.16 12.16 0 0 0-.57-2.76A12.07 12.07 0 0 0 131.45 34a12.15 12.15 0 0 0-2.6 1.22 12.15 12.15 0 0 0-1.61-2.38 12.07 12.07 0 0 0-17-1.24 12.28 12.28 0 0 0-.92.89 12 12 0 0 0-9.32-4.35h-.13a12.05 12.05 0 0 0-9.45 4.74 12.06 12.06 0 0 0-19.69 2.59 12.08 12.08 0 0 0-18.43 9.18A12.08 12.08 0 0 0 38.66 60a12.16 12.16 0 0 0-2.68.91A12.07 12.07 0 0 0 30.23 77a12.25 12.25 0 0 0 .78 1.4 12.08 12.08 0 0 0-2.6 20 12.12 12.12 0 0 0-2 2.72 12.08 12.08 0 0 0 9 17.61A12.07 12.07 0 0 0 57.48 127a3 3 0 0 0-5-3.27 6.07 6.07 0 1 1-10.18-6.61v-1.18-.1-.11-1.25l-.06-.13-.06-.12v-.54l-.05-.06-.05-.05-.05-.05-.09-.09-.1-.09-.09-.07-.08-.06H39.46A6.07 6.07 0 0 1 35.31 101l.28-.1h.23a3 3 0 0 0 .41-.28l.09-.07.07-.07.06-.06.05-.06a3 3 0 0 0 .47-.71l.05-.12v-.25c0-.07 0-.15.05-.22V98.85v-.2-.19c0-.07 0 0 0 0v-.11-.1V97.52l.14-.52v-.22l-.21-.14-.07-.12-.08-.11-.08-.1-.08-.09-.07-.08-.11-.14h-.05l-.07-.06-.09-.07-.11-.08a3 3 0 0 0-.5-.27h-.47a6.07 6.07 0 0 1 2.45-11.88H38.51a3 3 0 0 0 .42-.07l.21-.06.21-.07.2-.09.18-.1.17-.11.16-.12.13-.11.13-.14.11-.13.12-.17a3 3 0 0 0 .21-.39l.09-.21V81.63L41 81v-.27-.14-.12c0-.04 0 0 0 0V80a3 3 0 0 0-.25-.81l-.02-.19v-.12l-.07-.11a3 3 0 0 0-.56-.63l-.17-.14h-.12l-.08-.05-.1-.06-.12-.06-.13-.06h-.12a6.07 6.07 0 0 1 4.07-11.43h2.17l.1-.34.11-.06.1-.07.09-.07h.11l.24-.22.11-.12.09-.11.08-.11.17-.24V64.76l.05-.12.05-.14v-.59a3 3 0 0 0-.55-2.13l-.05-.07v-.05l-.07-.08-.09-.09-.11-.1a6.07 6.07 0 0 1 8-9.08l.07.06.13.1h.05l.11.07.35.18a3 3 0 0 0 .57.18H56.63l.24-.08.23-.1.13-.07.11-.07.09-.06h.07l.06-.05.08-.07.1-.09.1-.11.09-.11.08-.1.06-.08v-.13A3 3 0 0 0 59.13 49V48.58l-.06-.13a6.07 6.07 0 0 1 10.84-5.46l.1.19.11.17.09.12.11.12.06.06.07.07.09.09.08.07.07.06.08.06h.07l.13.08.15.08.18.08a3 3 0 0 0 .57.18h1.56l.15-.06.16-.07.19-.1.27-.19a3 3 0 0 0 .75-.79v-.26a3 3 0 0 0 .3-1.07 3 3 0 0 0 0-.41 6.07 6.07 0 0 1 12.1-.88 3 3 0 0 0 3.21 2.77H91a3 3 0 0 0 3-3 6.07 6.07 0 0 1 6-6.13 6.07 6.07 0 0 1 6.07 6V41.62l.05.08.05.07.05.06.05.06.05.05.06.05.06.05.07.05.07.05H109.09a3 3 0 0 0 .88-.48l.11-.09.09-.08.08-.08.07-.07.05-.07V39.71a6.07 6.07 0 0 1 12.1.87v.5a3 3 0 0 0 .3 1V42.29a3 3 0 0 0 .76.8l.19.13h.05l.15.08h.12l.16.07h1.5a3 3 0 0 0 .81-.27l.1-.05h.06a3 3 0 0 0 .68-.56l.07-.08.05-.07v-.11l.06-.08.07-.11.07-.13a6.07 6.07 0 0 1 10.84 5.46l-.06.13V47.92a3 3 0 0 0-.08 1v.14a3 3 0 0 0 .35 1.06v.14l.06.08.08.1.09.11.1.11.09.09.08.07.06.05.07.05.09.06.11.07.13.07.23.1.24.08h1.41a3 3 0 0 0 .92-.36l.11-.07h.05l.13-.1.07-.06a6.07 6.07 0 1 1 8 9.08l-.11.1-.09.09-.07.08v.05l-.05.07a3 3 0 0 0-.55 2.13V62.91l.05.14.05.12.05.1v.14l.06.09L153 65l.09.11a3 3 0 0 0 .35.34h.12l.1.07.11.07.11.06.11.06h2.38a6.07 6.07 0 0 1 4.07 11.43h-.12l-.12.06-.12.06-.1.06-.08.05h-.13l-.08.07a3 3 0 0 0-.57.64l-.07.11V78.31l-.05.1a3 3 0 0 0-.25.8V80.57l.08.21a3 3 0 0 0 .21.39l.12.16.11.13.13.13.12.11.15.11.16.11.17.09.19.08.2.07.21.06a3 3 0 0 0 .42.07H161.85A6.07 6.07 0 0 1 164.56 95l-.31.08h-.34l-.12.06-.12.07-.11.07-.1.07-.08.06-.06.05h-.05l-.07.07-.08.08-.08.1a3 3 0 0 0-.24.35l-.06.11v.22l-.05.13V97.46c0 .03 0 0 0 0v.61c0 .07 0 .15.05.22v.25l.06.12a3 3 0 0 0 .47.71l.06.06.06.06.07.06.08.07a3 3 0 0 0 .4.27H164.16l.28.1a6.07 6.07 0 0 1-3.56 11.6H158.71l-.08.05-.1.07L158 113l-.11.1-.11.1-.08.08-.06.07-.05.07v.37l-.07.13-.06.14v2.41a6.07 6.07 0 1 1-10.18 6.61 3 3 0 0 0-5 3.27 12.07 12.07 0 0 0 22.07-8.23 12.08 12.08 0 0 0 7-20.33z"/><path fill="#ea9d7f" d="M100 168.75a31.43 31.43 0 0 1-31.43-31.43l-45.23 26.9a100 100 0 0 0 153.31 0l-45.23-26.9A31.43 31.43 0 0 1 100 168.75z"/></g></g></svg>