<svg xmlns="http://www.w3.org/2000/svg" viewBox="0 0 200 200"><defs><style>.cls-3{fill:#f3d26a}</style></defs><g style="isolation:isolate"><g id="Layer_2" data-name="Layer 2"><g id="Layer_1-2" data-name="Layer 1"><circle cx="100" cy="100" r="100" style="mix-blend-mode:multiply" fill="#f4f4f4"/><path d="M133.33 114.45a27.45 27.45 0 0 1-11.3 0 3 3 0 0 0-1.26 5.87 33.32 33.32 0 0 0 13.8 0 3 3 0 1 0-1.23-5.87zM156.36 67.21a3 3 0 1 0-4.24-4.21A10 10 0 0 1 138 63a3 3 0 1 0-4.24 4.24 16 16 0 0 0 22.59 0zM110 79.65a3 3 0 1 0-4.24 4.24 31.13 31.13 0 0 0 44.05 0 3 3 0 1 0-4.24-4.24 25.13 25.13 0 0 1-35.57 0z"/><path d="M169.67 57.84A45.52 45.52 0 0 0 136.53 31a40.06 40.06 0 0 0-9.53-1.13 39.36 39.36 0 0 0-20.5 5.56 45.75 45.75 0 0 0-18.91 19 3 3 0 0 0-.42.62L64.63 98.24l-.24-7.42A10.73 10.73 0 0 0 44 86.39a10.73 10.73 0 0 0-16.46 9.36 10.73 10.73 0 0 0-15.14 10.09l1.34 44.77q.68 1.15 1.38 2.28 1.59 2.55 3.33 5Q19.22 159 20 160l-.16-4.82-1.48-49.56a4.74 4.74 0 1 1 9.47-.28 3 3 0 0 0 0 .37l.63 19.57a3 3 0 0 0 3 2.9h.1a3 3 0 0 0 2.9-3.09l-.95-29.52a4.74 4.74 0 1 1 9.49-.24v.21l1 29.32a3 3 0 0 0 3 2.9h.1a3 3 0 0 0 2.9-3.09l-1.07-33.39a4.74 4.74 0 1 1 9.46-.28l1.06 33.4v.62a3 3 0 0 0 .14.41l.05.12V125.76l.06.1a3 3 0 0 0 .46.55l.1.09.09.07.08.06H63.27l.11-.07.3-.22.25-.24.08-.09.06-.08v-.13a20.26 20.26 0 0 1 19.57-8.91 20.08 20.08 0 0 1 2.72.55 20.31 20.31 0 0 1 14.51 15.75l-5.23.18-4.44.15a10.78 10.78 0 1 0-10.22 14.22h.32a10.79 10.79 0 0 0 10.15-8.22l9.66-.33a20.26 20.26 0 0 1-19.53 18l-15 .45-1.92.06h.44H63.92l-.07.05-.07.05-.06.06-.05.06V159.85c0 .03 0 0 0 0v.2L65.74 194q1.53.56 3.09 1.07T72 196l-3.1-32.23 13.76-.41a26.28 26.28 0 0 0 25-21.21 26.47 26.47 0 0 0 .47-5.81A26.08 26.08 0 0 0 99.85 118a26.58 26.58 0 0 0-3.48-2.77l8-1.21a3.12 3.12 0 0 0 1.28-5.63 39.66 39.66 0 0 1-14.81-18.62 39.2 39.2 0 0 1-2.43-10.43c0-.34-.06-.68-.08-1-.06-.89-.09-1.78-.09-2.67A39.34 39.34 0 0 1 90.32 63c.47.08 1 .16 1.57.22a28.59 28.59 0 0 0 3.13.17 31.88 31.88 0 0 0 4-.26 3 3 0 0 0 .13 4.11 16 16 0 0 0 22.59 0 3 3 0 0 0-4.23-4.24 10 10 0 0 1-14.1 0 3 3 0 0 0-.71-.53l.46-.11a48.28 48.28 0 0 0 16.1-7.63 87 87 0 0 0 17.85-17.46 39.65 39.65 0 0 1 24.14 17.4l3 5.76a39.68 39.68 0 0 1 .45 29.37c0 .08-.06.16-.08.24l-.1.23a39.67 39.67 0 0 1-14.87 18.33l-.12.09-.1.08-.07.06-.06.05-.05.05v.05l-.05.06v1.19a3 3 0 0 0 0 .3v.13c0 .04 0 0 0 0v.78l.08.22.08.18.1.18.08.13V112.27l.06.08v.05l.07.08.18.19.09.08.09.07.19.13h.54l.15.05h.43l17.72 2.76 28.68 4.47h.48q.29-1.35.55-2.7.29-1.53.53-3.08l.18-1.22zm-84.34 82.57a4.78 4.78 0 1 1-3.62-8.05h.15a4.78 4.78 0 0 1 4.77 4.64 4.75 4.75 0 0 1-1.3 3.41zM62.83 127.28z"/><path d="M197.68 121.31H197.24l-28.68-4.47a42.55 42.55 0 0 1-60.91 25.37 26.28 26.28 0 0 1-25 21.21l-13.76.41L72 196a100.11 100.11 0 0 0 125.73-74.7zm-13.55 15.38zM86.63 137a4.78 4.78 0 0 0-4.77-4.64h-.15a4.78 4.78 0 1 0 4.92 4.64z" class="cls-3"/></g></g></g></svg>