<svg xmlns="http://www.w3.org/2000/svg" viewBox="0 0 104 18"><style>.st0{fill:#fff}.st1{fill:#f3d26a}</style><title>stars</title><desc>Created with Sketch.</desc><path d="M17.2 6l-4.5-.3c-.4-.1-.7-.3-.9-.7L10.1.7C9.7-.2 8.5-.2 8.2.6L6.4 4.9c-.2.4-.5.7-.9.7L1 6C0 6.1-.3 7.3.4 8l3.3 3c.3.3.4.7.3 1.1l-1 4.5c-.2 1 .8 1.7 1.6 1.2l3.9-2.4c.3-.2.8-.2 1.1 0l3.9 2.4c.8.5 1.8-.2 1.6-1.2l-1-4.5c-.1-.4 0-.8.3-1.1l3.4-3.1c.7-.6.3-1.8-.6-1.9z" class="st0"/><path d="M9.1 1s.1 0 0 0l1.8 4.4c.3.6.8 1 1.6 1.2h.2l4.4.4v.1l-3.4 3.1c-.5.5-.7 1.3-.6 2l1 4.5v.1H14l-3.9-2.4c-.3-.2-.7-.3-1.1-.3-.4 0-.8.1-1.1.3L4 16.8h-.1v-.1l1-4.5c.2-.7 0-1.5-.6-2.1L1 7.1V7h.1l4.5-.4c.7 0 1.4-.5 1.7-1.3L9.1 1m0-1c-.4 0-.8.2-.9.6L6.4 4.9c-.2.4-.5.7-.9.7L1 6C0 6.1-.3 7.3.4 8l3.3 3c.3.3.4.7.3 1.1l-1 4.5c-.2.8.4 1.4 1 1.4.2 0 .4-.1.6-.2l3.9-2.4c.1-.1.3-.2.5-.2s.4.1.5.2l3.9 2.4c.2.1.4.2.6.2.6 0 1.2-.6 1-1.4l-1-4.5c-.1-.4 0-.8.3-1.1l3.4-3.1c.7-.6.3-1.8-.6-1.9l-4.5-.3c-.3-.1-.6-.3-.8-.7L10.1.7c-.2-.5-.6-.7-1-.7z" class="st1"/><path d="M38.6 6l-4.4-.3c-.4-.1-.7-.3-.9-.7L31.5.7c-.3-.9-1.6-.9-1.9 0L27.8 5c-.2.4-.5.7-.9.7l-4.5.4c-.9 0-1.3 1.3-.6 1.9l3.4 3c.3.3.4.7.3 1.1l-1 4.5c-.2 1 .8 1.7 1.6 1.2l3.9-2.4c.3-.2.8-.2 1.1 0l3.9 2.4c.8.5 1.8-.2 1.6-1.2l-1-4.5c-.1-.4 0-.8.3-1.1l3.3-3c.8-.7.4-1.9-.6-2z" class="st0"/><path d="M30.6 1l1.8 4.4c.3.6.8 1 1.6 1.2h.2l4.3.4c.1 0 .1 0 .1.1s0 .1-.1.2l-3.3 3c-.5.5-.7 1.3-.6 2l1 4.5v.1h-.1l-3.9-2.4c-.3-.2-.7-.3-1.1-.3-.4 0-.8.1-1.1.3l-3.9 2.4h-.1v-.1l1-4.5c.2-.7 0-1.5-.6-2l-3.4-3v-.1l4.6-.5c.7 0 1.4-.5 1.7-1.3L30.6 1c-.1 0-.1 0 0 0m0-1c-.4 0-.8.2-1 .7L27.8 5c-.2.4-.5.7-.9.7l-4.5.4c-.9 0-1.3 1.3-.6 1.9l3.4 3c.3.3.4.7.3 1.1l-1 4.5c-.2.8.4 1.4 1 1.4.2 0 .4-.1.6-.2l3.9-2.4c.1-.1.3-.2.5-.2s.4.1.5.2l3.9 2.4c.2.1.4.2.6.2.6 0 1.2-.6 1-1.4l-1-4.5c-.1-.4 0-.8.3-1.1l3.3-3c.8-.7.4-1.9-.6-2l-4.4-.3c-.4-.1-.7-.3-.9-.7L31.4.7c0-.5-.4-.7-.8-.7z" class="st1"/><path d="M60.1 6l-4.5-.3c-.4-.1-.7-.3-.9-.7L53 .7c-.4-.9-1.6-.9-2 0l-1.7 4.2c-.2.4-.5.7-.9.7l-4.5.4c-.9.1-1.3 1.3-.6 2l3.3 3c.3.3.4.7.3 1.1l-1 4.5c-.2 1 .8 1.7 1.6 1.2l3.9-2.4c.3-.2.8-.2 1.1 0l3.9 2.4c.8.5 1.8-.2 1.6-1.2l-1-4.5c-.1-.4 0-.8.3-1.1l3.4-3c.7-.7.3-1.9-.6-2z" class="st0"/><path d="M52 1s.1 0 0 0l1.8 4.3c.3.6.8 1 1.6 1.2h.2L60 7l.1.1v.2l-3.4 3c-.5.5-.7 1.3-.6 2l1 4.5v.1H57l-3.9-2.4c-.3-.2-.7-.3-1.1-.3-.4 0-.8.1-1.1.3L47 16.9h-.1v-.1l1-4.5c.2-.7 0-1.5-.6-2.1l-3.3-3c-.1-.1-.1-.2-.1-.2h.1l4.5-.4c.7 0 1.4-.5 1.7-1.3L52 1c-.1 0 0 0 0 0m0-1c-.4 0-.8.2-1 .7l-1.7 4.2c-.2.4-.5.7-.9.7l-4.5.4c-.9.1-1.3 1.3-.6 2l3.3 3c.3.3.4.7.3 1.1l-1 4.5c-.2.8.4 1.4 1 1.4.2 0 .4-.1.6-.2l3.9-2.4c.1-.1.3-.2.5-.2s.4.1.5.2l3.9 2.4c.2.1.4.2.6.2.6 0 1.2-.6 1-1.4l-1-4.5c-.1-.4 0-.8.3-1.1l3.4-3c.7-.7.3-1.9-.6-2l-4.5-.3c-.4-.1-.7-.3-.9-.7L53 .7c-.2-.5-.6-.7-1-.7z" class="st1"/><g><path d="M81.6 6l-4.5-.3c-.4-.1-.7-.3-.9-.7L74.4.7c-.3-.9-1.6-.9-1.8-.1l-1.8 4.3c-.2.4-.5.7-.9.7l-4.5.4c-1 .1-1.4 1.3-.6 2l3.3 3c.3.3.4.7.3 1.1l-1 4.5c-.2 1 .8 1.7 1.6 1.2l3.9-2.4c.3-.2.8-.2 1.1 0l3.9 2.4c.8.5 1.8-.2 1.6-1.2l-1-4.5c-.1-.4 0-.8.3-1.1l3.4-3.1c.7-.6.3-1.8-.6-1.9z" class="st0"/><path d="M73.5 1.1l1.8 4.3c.3.6.8 1 1.6 1.2h.2l4.4.4v.1l-3.4 3.1c-.5.5-.7 1.3-.6 2l1 4.5v.1h-.1l-3.9-2.4c-.3-.2-.7-.3-1.1-.3-.4 0-.8.1-1.1.3l-3.9 2.4h-.1v-.1l1-4.5c.2-.7 0-1.5-.6-2.1l-3.3-3c-.1-.1-.1-.1-.1-.2l.1-.1 4.6-.2c.7 0 1.4-.5 1.7-1.3l1.8-4.2M73.4 0c-.4 0-.7.2-.8.6l-1.8 4.3c-.2.4-.5.7-.9.7l-4.5.4c-1 .1-1.4 1.3-.6 2l3.3 3c.3.3.4.7.3 1.1l-1 4.5c-.2.8.4 1.4 1 1.4.2 0 .4-.1.6-.2l3.9-2.4c.1-.1.3-.2.5-.2s.4.1.5.2l3.9 2.4c.2.1.4.2.6.2.6 0 1.2-.6 1-1.4l-1-4.5c-.1-.4 0-.8.3-1.1l3.4-3.1c.7-.6.3-1.8-.6-1.9L77 5.7c-.4-.1-.7-.3-.9-.7L74.3.7c-.1-.5-.5-.7-.9-.7z" class="st1"/></g><g><path d="M103.6 7.9c.7-.6.3-1.8-.6-1.9l-4.4-.3c-.4-.1-.7-.3-.9-.7L95.9.7c-.4-.9-1.6-.9-1.9 0L92.2 5c-.2.4-.5.7-.9.7l-4.5.4c-.9 0-1.3 1.3-.6 1.9l3.3 3c.3.3.4.7.3 1.1l-1 4.5c-.2 1 .8 1.7 1.6 1.2l3.9-2.4c.3-.2.8-.2 1.1 0l3.9 2.4c.8.5 1.8-.2 1.6-1.2l-1-4.5c-.1-.4 0-.8.3-1.1l3.4-3.1z" class="st0"/><path d="M94.9 1c.1 0 .1.1 0 0l1.8 4.3c.3.6.8 1 1.6 1.2h.2l4.4.3v.1L99.5 10c-.5.5-.7 1.3-.6 2l1 4.5v.1h-.1l-3.8-2c-.3-.2-.7-.3-1.1-.3-.4 0-.8.1-1.1.3L89.9 17h-.1v-.1l1-4.5c.2-.7 0-1.5-.6-2.1l-3.3-3v-.1l4.5-.4c.7 0 1.4-.5 1.7-1.3L94.9 1m0-1c-.4 0-.8.2-.9.7L92.2 5c-.2.4-.5.7-.9.7l-4.5.4c-.9 0-1.3 1.3-.6 1.9l3.3 3c.3.3.4.7.3 1.1l-1 4.5c-.2.8.4 1.4 1 1.4.2 0 .4-.1.6-.2l3.9-2.4c.2-.1.3-.2.6-.2s.4.1.6.2l3.9 2.4c.2.1.4.2.6.2.6 0 1.2-.6 1-1.4l-1-4.5c-.1-.4 0-.8.3-1.1l3.4-3.1c.7-.6.3-1.8-.6-1.9l-4.4-.3c-.4-.1-.7-.3-.9-.7L96 .7c-.3-.5-.7-.7-1.1-.7z" class="st1"/></g></svg>