<svg xmlns="http://www.w3.org/2000/svg" viewBox="0 0 104 18"><style>.st0{fill:#f3d26a}</style><title>stars</title><desc>Created with Sketch.</desc><g transform="translate(-160 -526)"><g transform="translate(64 308)"><g transform="translate(96 218)"><g><path d="M10.1.7L11.8 5c.2.4.5.6.9.7l4.5.3c.9.1 1.3 1.3.6 1.9L14.4 11c-.3.3-.4.7-.3 1.1l1 4.5c.2 1-.8 1.7-1.6 1.2l-3.9-2.4c-.3-.2-.8-.2-1.1 0l-3.9 2.4c-.8.5-1.8-.2-1.6-1.2l1-4.5c.1-.4 0-.8-.3-1.1L.4 8c-.7-.7-.4-1.9.6-2l4.5-.4c.4 0 .7-.3.9-.7L8.2.6c.3-.8 1.5-.8 1.9.1" class="st0"/><path d="M31.5.7L33.3 5c.2.4.5.6.9.7l4.4.3c1 .1 1.4 1.3.6 2l-3.3 3c-.3.3-.4.7-.3 1.1l1 4.5c.2 1-.8 1.7-1.6 1.2l-3.9-2.4c-.3-.2-.8-.2-1.1 0l-3.9 2.4c-.8.5-1.8-.2-1.6-1.2l1-4.5c.1-.4 0-.8-.3-1.1l-3.4-3c-.7-.6-.3-1.9.6-1.9l4.5-.4c.4 0 .7-.3.9-.7L29.6.7c.3-.9 1.6-.9 1.9 0" class="st0"/><path d="M53 .7L54.7 5c.2.4.5.6.9.7l4.5.3c.9.1 1.3 1.3.6 2l-3.4 3c-.3.3-.4.7-.3 1.1l1 4.5c.2 1-.8 1.7-1.6 1.2l-3.9-2.4c-.3-.2-.8-.2-1.1 0l-3.9 2.4c-.8.5-1.8-.2-1.6-1.2l1-4.5c.1-.4 0-.8-.3-1.1l-3.3-3c-.7-.7-.3-1.9.6-2l4.5-.4c.4 0 .7-.3.9-.7L51 .7c.4-.9 1.6-.9 2 0" class="st0"/><path d="M74.4.7L76.2 5c.2.4.5.6.9.7l4.5.3c.9.1 1.3 1.3.6 1.9L78.8 11c-.3.3-.4.7-.3 1.1l1 4.5c.2 1-.8 1.7-1.6 1.2L74 15.4c-.3-.2-.8-.2-1.1 0L69 17.8c-.8.5-1.8-.2-1.6-1.2l1-4.5c.1-.4 0-.8-.3-1.1l-3.3-3c-.8-.7-.4-1.9.6-2l4.5-.4c.4 0 .7-.3.9-.7L72.6.6c.2-.8 1.5-.8 1.8.1" class="st0"/><path d="M95.9.7L97.7 5c.2.4.5.6.9.7l4.4.3c.9.1 1.3 1.3.6 1.9l-3.4 3.1c-.3.3-.4.7-.3 1.1l1 4.5c.2 1-.8 1.7-1.6 1.2l-3.9-2.4c-.3-.2-.8-.2-1.1 0l-3.9 2.4c-.8.5-1.8-.2-1.6-1.2l1-4.5c.1-.4 0-.8-.3-1.1l-3.3-3c-.7-.6-.3-1.9.6-1.9l4.5-.4c.4 0 .7-.3.9-.7L94 .7c.3-.9 1.5-.9 1.9 0" class="st0"/></g><g><path d="M10.1.7L11.8 5c.2.4.5.6.9.7l4.5.3c.9.1 1.3 1.3.6 1.9L14.4 11c-.3.3-.4.7-.3 1.1l1 4.5c.2 1-.8 1.7-1.6 1.2l-3.9-2.4c-.3-.2-.8-.2-1.1 0l-3.9 2.4c-.8.5-1.8-.2-1.6-1.2l1-4.5c.1-.4 0-.8-.3-1.1L.4 8c-.7-.7-.4-1.9.6-2l4.5-.4c.4 0 .7-.3.9-.7L8.2.6c.3-.8 1.5-.8 1.9.1" class="st0"/><path d="M31.5.7L33.3 5c.2.4.5.6.9.7l4.4.3c1 .1 1.4 1.3.6 2l-3.3 3c-.3.3-.4.7-.3 1.1l1 4.5c.2 1-.8 1.7-1.6 1.2l-3.9-2.4c-.3-.2-.8-.2-1.1 0l-3.9 2.4c-.8.5-1.8-.2-1.6-1.2l1-4.5c.1-.4 0-.8-.3-1.1l-3.4-3c-.7-.6-.3-1.9.6-1.9l4.5-.4c.4 0 .7-.3.9-.7L29.6.7c.3-.9 1.6-.9 1.9 0" class="st0"/><path d="M53 .7L54.7 5c.2.4.5.6.9.7l4.5.3c.9.1 1.3 1.3.6 2l-3.4 3c-.3.3-.4.7-.3 1.1l1 4.5c.2 1-.8 1.7-1.6 1.2l-3.9-2.4c-.3-.2-.8-.2-1.1 0l-3.9 2.4c-.8.5-1.8-.2-1.6-1.2l1-4.5c.1-.4 0-.8-.3-1.1l-3.3-3c-.7-.7-.3-1.9.6-2l4.5-.4c.4 0 .7-.3.9-.7L51 .7c.4-.9 1.6-.9 2 0" class="st0"/><path d="M74.4.7L76.2 5c.2.4.5.6.9.7l4.5.3c.9.1 1.3 1.3.6 1.9L78.8 11c-.3.3-.4.7-.3 1.1l1 4.5c.2 1-.8 1.7-1.6 1.2L74 15.4c-.3-.2-.8-.2-1.1 0L69 17.8c-.8.5-1.8-.2-1.6-1.2l1-4.5c.1-.4 0-.8-.3-1.1l-3.3-3c-.8-.7-.4-1.9.6-2l4.5-.4c.4 0 .7-.3.9-.7L72.6.6c.2-.8 1.5-.8 1.8.1" class="st0"/><path d="M95.9.7L97.7 5c.2.4.5.6.9.7l4.4.3c.9.1 1.3 1.3.6 1.9l-3.4 3.1c-.3.3-.4.7-.3 1.1l1 4.5c.2 1-.8 1.7-1.6 1.2l-3.9-2.4c-.3-.2-.8-.2-1.1 0l-3.9 2.4c-.8.5-1.8-.2-1.6-1.2l1-4.5c.1-.4 0-.8-.3-1.1l-3.3-3c-.7-.6-.3-1.9.6-1.9l4.5-.4c.4 0 .7-.3.9-.7L94 .7c.3-.9 1.5-.9 1.9 0" class="st0"/></g></g></g></g></svg>