<svg xmlns="http://www.w3.org/2000/svg" viewBox="0 0 200 200"><defs><style>.cls-3{fill:#f3d26a}</style></defs><g style="isolation:isolate"><g id="Layer_2" data-name="Layer 2"><g id="Layer_1-2" data-name="Layer 1"><circle cx="100" cy="100" r="100" style="mix-blend-mode:multiply" fill="#f4f4f4"/><path d="M157 88.59a18.66 18.66 0 0 0-5.87-13 20.31 20.31 0 0 0-7.15-4.5 19.36 19.36 0 0 0 3.46-8 15 15 0 0 0-2.85-11.86 13.83 13.83 0 0 0-6.76-4.77 21.05 21.05 0 0 0-7.83-1 30.63 30.63 0 0 0-9.7 2.17 22.34 22.34 0 0 0-5.91-7.79 22 22 0 0 0-30.17 0 22.34 22.34 0 0 0-5.91 7.79 30.63 30.63 0 0 0-9.7-2.17 21.05 21.05 0 0 0-7.83 1A13.83 13.83 0 0 0 54 51.23a15 15 0 0 0-2.85 11.86 19.36 19.36 0 0 0 3.46 8 20.31 20.31 0 0 0-7.15 4.5 17.75 17.75 0 0 0-.23 26.16 20.29 20.29 0 0 0 7.09 4.62 12.15 12.15 0 0 0-.89 2 12.53 12.53 0 0 0 .6 9.81 15.75 15.75 0 0 0 10.57 7.7A44 44 0 0 0 83 140.36a43.77 43.77 0 0 0 48-9.36 44 44 0 0 0 4.79-5.66 15.34 15.34 0 0 0 8.81-7.2 12.53 12.53 0 0 0 .6-9.81 12.14 12.14 0 0 0-.89-2 20.29 20.29 0 0 0 7.09-4.62 18.64 18.64 0 0 0 5.6-13.12zm-25 31.5a37.78 37.78 0 0 1-2.26 3.21q-1.16 1.48-2.49 2.86l-.56.57a37.8 37.8 0 0 1-53.46 0l-.72-.74q-1.25-1.32-2.36-2.73t-2.11-3a37.34 37.34 0 0 1-4.93-11.78 18.55 18.55 0 0 0 24.15-1.79 18 18 0 0 1 25.38 0 18.55 18.55 0 0 0 24.15 1.79 37.34 37.34 0 0 1-4.79 11.61zm2.64-17.62a12.54 12.54 0 0 1-17.74 0 23.95 23.95 0 0 0-33.87 0 12.55 12.55 0 0 1-20.79-4.95 37.48 37.48 0 0 1 9.63-22.81 40.33 40.33 0 0 0 16.21 7 27.39 27.39 0 0 0 4.95.49 15.91 15.91 0 0 0 7.51-1.7 11.9 11.9 0 0 0 5-5.1l.13-.27a16.61 16.61 0 0 0 5.85 2.11 15.57 15.57 0 0 0 12.21-3 13.07 13.07 0 0 0 1.94-1.91q.5.46 1 .95a37.52 37.52 0 0 1 11 24.25 12.56 12.56 0 0 1-3 4.94z"/><path d="M117.8 116.29a25.55 25.55 0 0 1-2.87 2.47q-.78.57-1.59 1.08a25.16 25.16 0 0 1-27.88-.84l-.38-.27a25.56 25.56 0 0 1-2.87-2.47 3 3 0 0 0-4.21 4.28l.46.45a31.65 31.65 0 0 0 2.46 2.13 31.15 31.15 0 0 0 37.67.42 31.54 31.54 0 0 0 2.56-2.13c.31-.28.61-.57.91-.87a3 3 0 0 0-4.23-4.26zM77.89 170.57H64.61a.07.07 0 0 1-.06 0 .07.07 0 0 1 0-.07c1.14-4.51 3.28-12.94 4.72-18.83a3 3 0 1 0-5.83-1.43l-.9 3.65c-1.33 5.33-2.89 11.5-3.81 15.13a6.08 6.08 0 0 0 5.89 7.58h8.82l-1.83 4.5a18.92 18.92 0 0 0 .25 14.9q4.15 1.21 8.44 2.07l-1.6-2.17a13 13 0 0 1-1.55-12.55l3.52-8.63a3 3 0 0 0-2.78-4.13zM137.47 153.86l-.9-3.65a3 3 0 0 0-5.83 1.43c1.44 5.87 3.58 14.32 4.72 18.83a.07.07 0 0 1 0 .07.07.07 0 0 1-.06 0h-13.29a3 3 0 0 0-2.78 4.13l3.52 8.63a13 13 0 0 1-1.55 12.55l-1.6 2.17q4.29-.86 8.44-2.07a18.92 18.92 0 0 0 .26-14.92l-1.83-4.5h8.82a6.08 6.08 0 0 0 5.89-7.58c-.92-3.59-2.48-9.77-3.81-15.09z"/><path d="M74.2 106.14a12.46 12.46 0 0 0 8.87-3.67 23.95 23.95 0 0 1 33.87 0 12.55 12.55 0 0 0 20.79-4.95 37.52 37.52 0 0 0-11-24.25q-.48-.48-1-.95a13.07 13.07 0 0 1-1.94 1.91 15.57 15.57 0 0 1-12.21 3 16.61 16.61 0 0 1-5.85-2.11l-.13.27a11.9 11.9 0 0 1-5 5.1 15.91 15.91 0 0 1-7.51 1.7 27.39 27.39 0 0 1-4.95-.49 40.33 40.33 0 0 1-16.21-7 37.48 37.48 0 0 0-9.63 22.81 12.55 12.55 0 0 0 11.92 8.62zM68.72 149.1a3 3 0 0 1 .54 2.54c-1.44 5.88-3.58 14.32-4.72 18.83a.07.07 0 0 0 0 .07.07.07 0 0 0 .06 0h13.29a3 3 0 0 1 2.78 4.13l-3.52 8.63a13 13 0 0 0 1.55 12.55l1.6 2.17a100.21 100.21 0 0 0 15.89 1.87L79.9 140.5z" class="cls-3"/><path d="M71.59 181.07l1.83-4.5h-8.81a6.08 6.08 0 0 1-5.89-7.57c.92-3.63 2.48-9.8 3.81-15.13l-28.12 21.61A99.8 99.8 0 0 0 71.86 196a18.92 18.92 0 0 1-.26-14.92zM141.28 169a6.08 6.08 0 0 1-5.89 7.58h-8.82l1.83 4.5a18.92 18.92 0 0 1-.26 14.92 99.8 99.8 0 0 0 37.45-20.5l-28.12-21.62c1.33 5.3 2.89 11.48 3.81 15.12z" class="cls-3"/><path d="M123.71 189.81a13 13 0 0 0-.86-6.48l-3.52-8.63a3 3 0 0 1 2.78-4.13h13.28a.07.07 0 0 0 .06 0 .07.07 0 0 0 0-.07c-1.15-4.51-3.28-13-4.72-18.83a3 3 0 0 1 .54-2.54l-11.18-8.6-16.28 59.43a100.21 100.21 0 0 0 15.89-1.87l1.6-2.17a13 13 0 0 0 2.41-6.11z" class="cls-3"/></g></g></g></svg>