<svg xmlns="http://www.w3.org/2000/svg" viewBox="0 0 200 200"><defs><style>.cls-3{fill:#f3d26a}</style></defs><g style="isolation:isolate"><g id="Layer_2" data-name="Layer 2"><g id="Layer_1-2" data-name="Layer 1"><circle cx="100" cy="100" r="100" style="mix-blend-mode:multiply" fill="#f4f4f4"/><path d="M77.89 170.77H64.61a.07.07 0 0 1-.06 0 .07.07 0 0 1 0-.07c1.14-4.51 3.28-12.94 4.72-18.83a3 3 0 1 0-5.83-1.43l-.9 3.65c-1.33 5.33-2.89 11.5-3.81 15.13a6.08 6.08 0 0 0 5.89 7.58h8.82l-1.83 4.5a18.94 18.94 0 0 0 .15 14.7q4.11 1.21 8.37 2.07l-1.42-1.94a13 13 0 0 1-1.55-12.55l3.52-8.63a3 3 0 0 0-2.78-4.13zM137.47 154.06l-.9-3.65a3 3 0 0 0-5.83 1.43c1.44 5.87 3.58 14.32 4.72 18.83a.07.07 0 0 1 0 .07.07.07 0 0 1-.06 0h-13.29a3 3 0 0 0-2.78 4.13l3.52 8.63a13 13 0 0 1-1.55 12.55l-1.43 1.95q4.25-.86 8.37-2.07a18.94 18.94 0 0 0 .16-14.69l-1.83-4.5h8.82a6.08 6.08 0 0 0 5.89-7.58c-.92-3.6-2.48-9.78-3.81-15.1zM140.7 97a3 3 0 0 0-3 3 37.69 37.69 0 0 1-66 24.94 3 3 0 1 0-4.5 4A43.69 43.69 0 0 0 143.7 100a3 3 0 0 0-3-3z"/><path d="M169.24 83.78a34.12 34.12 0 0 0-1.24-11.9A22.75 22.75 0 0 0 160.22 61q-.64-.49-1.31-.93a22.38 22.38 0 0 0-.71-7.1 19.2 19.2 0 0 0-4.29-8.11l-.05-.05c-6.83-7.06-13.67-8.74-18.6-8.76q-.38-.6-.8-1.17c-3.71-4.91-10.19-7.73-17.78-7.75-4.6 0-10.41.66-15.55 3.3q-.75-.62-1.54-1.17a26.08 26.08 0 0 0-15.06-4.56c-5.74 0-10.62 1.18-14.51 3.51a18.87 18.87 0 0 0-7.71 8.68 20 20 0 0 0-.8 2.13c-.82.14-1.63.32-2.44.54a27.1 27.1 0 0 0-14.45 9.5 26.51 26.51 0 0 0-5.37 16.14 27.11 27.11 0 0 0-5.38 6 26.63 26.63 0 0 0-2.17 25.58 21.54 21.54 0 0 0 6.54 8.19 19.36 19.36 0 0 0 .76 3.73 16.73 16.73 0 0 0 6.92 9.37 20.89 20.89 0 0 0 19.84.81c5-2.47 9.26-6.95 12.54-13.32q.58-1.13 1.12-2.33A18.42 18.42 0 0 0 94.76 98a3 3 0 1 0-4.24-4.24 12.45 12.45 0 0 1-8.84 3.64A95.79 95.79 0 0 0 85.41 80a72.87 72.87 0 0 0 19.68 3c11.42 0 20.52-5.84 23.85-9.76a3 3 0 0 0-4.57-3.88 21.58 21.58 0 0 1-6.8 4.78A29.2 29.2 0 0 1 105.09 77a67.72 67.72 0 0 1-21.17-3.7 3 3 0 0 0-4 2.5C78.7 87.09 76.38 96.19 73 102.81c-2.68 5.2-6 8.8-9.85 10.68a14.64 14.64 0 0 1-8 1.44 14.46 14.46 0 0 1-6-1.95 10.44 10.44 0 0 1-3.89-4.76 16.65 16.65 0 0 0 12.21-1.85 9.6 9.6 0 0 0 5.1-7.07 10.21 10.21 0 0 0-3.31-8.69 11.06 11.06 0 0 0-10.46-2.55 13.1 13.1 0 0 0-9.41 8q-.23.6-.41 1.21a16.54 16.54 0 0 1-1.84-3.07 20.19 20.19 0 0 1-1.64-10.41 20.42 20.42 0 0 1 3.35-9.31 21.62 21.62 0 0 1 1.78-2.32 18.83 18.83 0 0 0 6.49 8.17l.09.07a13.59 13.59 0 0 0 10.23 1.55 9.36 9.36 0 0 0 6.2-4.23 11 11 0 0 0 1.14-8.76c-.68-2.19-2.48-5.27-7.18-7.54h-.09a15.51 15.51 0 0 0-12 .1 20.64 20.64 0 0 1 3.8-8.71 21.25 21.25 0 0 1 11.19-7.44 22.45 22.45 0 0 0 .15 2.88 16.6 16.6 0 0 0 3.63 9 12.43 12.43 0 0 0 6.24 3.82 11.11 11.11 0 0 0 6.48-.3 9.59 9.59 0 0 0 6.5-8.57c.18-5.49-3.31-10.08-9.34-12.27a22.59 22.59 0 0 0-6.06-1.26c2.65-5.22 8.31-8 16.43-8A20.16 20.16 0 0 1 96 34.07q-.61.58-1.18 1.22a19.32 19.32 0 0 0-3.93 6.78 14.88 14.88 0 0 0-.74 6.18c.57 4.82 2.85 7.24 4.67 8.42a10.59 10.59 0 0 0 9 1 8.43 8.43 0 0 0 5.11-4.49 14.88 14.88 0 0 0 .21-11.32 27.93 27.93 0 0 0-3.61-6.77 29.56 29.56 0 0 1 11.13-1.91h.08c4.87 0 9 1.44 11.76 4a21.12 21.12 0 0 0-3.18 1.33 17.59 17.59 0 0 0-5.93 4.84 12.47 12.47 0 0 0-2 9.52 8.75 8.75 0 0 0 4.76 6l.11.05a8.29 8.29 0 0 0 3.48.76c3.51 0 6.85-2.16 9-4.84a15.29 15.29 0 0 0 3.22-10 17.4 17.4 0 0 0-.25-2.5c5.13.79 9.21 3.94 11.91 6.72a14.63 14.63 0 0 1 3.37 8.44 20.89 20.89 0 0 0-8.44-.37 11.46 11.46 0 0 0-5.68 2.38 8 8 0 0 0-2.93 5.51 8.25 8.25 0 0 0 1.57 5.57 9.44 9.44 0 0 0 4.42 3.36 12.12 12.12 0 0 0 9.79-1 13.2 13.2 0 0 0 5.77-6.39 16.77 16.77 0 0 1 4.84 7.24 25.8 25.8 0 0 1 1.06 7.13 13.87 13.87 0 0 0-9.22-.76h-.09a8.81 8.81 0 0 0-6.64 7.25c-.64 3.85 1 8.07 3.88 10a10.06 10.06 0 0 0 8.21 1.31 12.36 12.36 0 0 0 6.48-4.08 13 13 0 0 1-.14 4c-.6 3-2.76 6-6.07 8.32a19.41 19.41 0 0 1-10.59 3.56 3 3 0 0 0 0 6 25.26 25.26 0 0 0 14-4.64c4.6-3.21 7.63-7.5 8.53-12.08A19.24 19.24 0 0 0 169 85.93c.14-.81.2-1.54.24-2.15zM45 98.16a7.15 7.15 0 0 1 5.14-4.21 5.35 5.35 0 0 1 4.88 1 4.32 4.32 0 0 1 1.53 3.56 3.6 3.6 0 0 1-2.06 2.62h-.08a10.75 10.75 0 0 1-10.23.39 13.46 13.46 0 0 1 .82-3.36zm10-31.34c2.16 1.05 3.55 2.4 4 3.9a5.1 5.1 0 0 1-.62 4 3.69 3.69 0 0 1-2.35 1.36 7.75 7.75 0 0 1-5.47-.66 12.55 12.55 0 0 1-5-7.38c3.44-1.91 6.86-2.36 9.44-1.22zm17.11-21.25c4.82 1.75 5.45 4.78 5.39 6.43a3.62 3.62 0 0 1-2.57 3.13c-3.15 1.15-5.54-1.14-6.2-1.86a10.76 10.76 0 0 1-2.12-5.71 16.64 16.64 0 0 1-.08-3 17.28 17.28 0 0 1 5.58 1.01zm31.36 4.93a2.44 2.44 0 0 1-1.47 1.41 4.66 4.66 0 0 1-3.9-.28c-1.34-.87-1.81-2.7-2-4.08a11.45 11.45 0 0 1 3.19-8.26 14.52 14.52 0 0 1 1.06-1.07 21.8 21.8 0 0 1 3.11 5.69 9.13 9.13 0 0 1 .01 6.59zM130 51c-1.13 1.4-3.45 3.18-5.26 2.41a2.77 2.77 0 0 1-1.56-1.94 6.58 6.58 0 0 1 1-4.54 13.51 13.51 0 0 1 7.44-4.44A10 10 0 0 1 130 51zm18.82 16.57a6.25 6.25 0 0 1-4.91.66 3 3 0 0 1-2.06-2.71c.16-1.68 2-2.31 3.55-2.55a16.31 16.31 0 0 1 2.49-.2 14 14 0 0 1 4.31.66 7.5 7.5 0 0 1-3.42 4.13zm12.63 23.07c-1.83 2.43-5.1 2.95-6.8 1.79a4.56 4.56 0 0 1-1.34-4.1 2.87 2.87 0 0 1 2.26-2.44 7.33 7.33 0 0 1 7.12 1.67 8.71 8.71 0 0 1-1.28 3.07z"/><path d="M131.29 98a3 3 0 0 0-4.29-4.27 12.43 12.43 0 0 1-17.56 0 3 3 0 1 0-4.2 4.27 18.41 18.41 0 0 0 26 0z"/><circle cx="100" cy="118.81" r="5.51"/><path d="M123.71 190a13 13 0 0 0-.86-6.48l-3.52-8.63a3 3 0 0 1 2.78-4.13h13.28a.07.07 0 0 0 .06 0 .07.07 0 0 0 0-.07c-1.15-4.51-3.28-13-4.72-18.83a3 3 0 0 1 .54-2.54l-11.18-8.6-16.23 59.23a100.2 100.2 0 0 0 16-1.9l1.42-1.94a13 13 0 0 0 2.43-6.11zM68.72 149.3a3 3 0 0 1 .54 2.54c-1.44 5.88-3.58 14.32-4.72 18.83a.07.07 0 0 0 0 .07.07.07 0 0 0 .06 0h13.29a3 3 0 0 1 2.78 4.13l-3.52 8.63a13 13 0 0 0 1.55 12.55l1.43 1.95a100.2 100.2 0 0 0 16 1.9L79.9 140.7z" class="cls-3"/><path d="M141.28 169.19a6.08 6.08 0 0 1-5.89 7.58h-8.82l1.83 4.5a18.94 18.94 0 0 1-.16 14.69 99.8 99.8 0 0 0 37.23-20.37l-28-21.53c1.33 5.32 2.89 11.5 3.81 15.13zM71.59 181.27l1.83-4.5h-8.81a6.08 6.08 0 0 1-5.89-7.58c.92-3.63 2.48-9.8 3.81-15.13l-28 21.53A99.8 99.8 0 0 0 71.76 196a18.94 18.94 0 0 1-.16-14.69z" class="cls-3"/></g></g></g></svg>