<?xml version="1.0" encoding="UTF-8"?>
<svg width="146px" height="61px" viewBox="0 0 146 61" version="1.1" xmlns="http://www.w3.org/2000/svg" xmlns:xlink="http://www.w3.org/1999/xlink">
    <!-- Generator: Sketch 63.1 (92452) - https://sketch.com -->
    <title>elle_logo_03</title>
    <desc>Created with Sketch.</desc>
    <g id="elle_logo_03" stroke="none" stroke-width="1" fill="none" fill-rule="evenodd">
        <g id="ELLE" transform="translate(22.000000, 10.000000)" fill="#1E306E">
            <path d="M3.13967243,40.6751593 L0,40.6751593 L0,41.2843494 L17.3853503,41.2843494 L17.3853503,30.3189263 L16.8698817,30.3189263 C16.8698817,30.3189263 16.8698817,36.645132 14.7611465,38.7070064 C12.9804368,40.4877161 11.1060055,40.6282985 8.0600546,40.6282985 L8.0600546,20.4313012 C8.0600546,20.4313012 10.1687898,20.2907189 11.199727,21.3216561 C12.7929936,22.9149227 12.9804368,24.9767971 12.9804368,27.8353048 L13.5427662,27.8353048 L13.5427662,12.3712466 L12.9804368,12.3712466 C12.9804368,15.2297543 12.8398544,17.2916288 11.199727,18.8848954 C10.1687898,19.9158326 8.0600546,19.7752502 8.0600546,19.7752502 L8.0600546,0.609190173 C11.1060055,0.609190173 12.5586897,0.796633304 14.3393995,2.53048226 C16.4012739,4.59235669 16.4481347,10.9185623 16.4481347,10.9185623 L16.9636033,10.9185623 L16.9636033,0 L0,0 L0,0.609190173 L3.13967243,0.609190173 L3.13967243,40.6751593 L3.13967243,40.6751593 Z" id="Shape"></path>
            <path d="M37.1137398,0.609190173 L37.1137398,40.6751593 C40.1596907,40.6751593 42.034122,40.4877161 43.8148317,38.7538672 C45.8767061,36.6919928 45.9235669,30.3657871 45.9235669,30.3657871 L46.4390355,30.3657871 L46.4390355,41.3312102 L29.0536852,41.3312102 L29.0536852,40.7220201 L32.1933576,40.7220201 L32.1933576,0.562329391 L29.0536852,0.562329391 L29.0536852,-3.95599469e-15 L39.9722475,-3.95599469e-15 L39.9722475,0.609190173 L37.1137398,0.609190173 L37.1137398,0.609190173 L37.1137398,0.609190173 Z" id="path14"></path>
            <path d="M65.0427662,0.609190173 L65.0427662,40.6751593 C68.0887171,40.6751593 69.9631484,40.4877161 71.7438581,38.7538672 C73.8057325,36.6919928 73.8525933,30.3657871 73.8525933,30.3657871 L74.3680619,30.3657871 L74.3680619,41.3312102 L56.9827116,41.3312102 L56.9827116,40.7220201 L60.122384,40.7220201 L60.122384,0.562329391 L56.9827116,0.562329391 L56.9827116,7.91198938e-15 L67.9012739,7.91198938e-15 L67.9012739,0.609190173 L65.0427662,0.609190173 L65.0427662,0.609190173 Z" id="path16"></path>
            <path d="M88.7543222,40.6751593 L85.6146498,40.6751593 L85.6146498,41.2843494 L103,41.2843494 L103,30.3189263 L102.484531,30.3189263 C102.484531,30.3189263 102.484531,36.645132 100.375796,38.7070064 C98.5950865,40.4877161 96.7206552,40.6282985 93.6747044,40.6282985 L93.6747044,20.4313012 C93.6747044,20.4313012 95.7834396,20.2907189 96.8143768,21.3216561 C98.4076434,22.9149227 98.5950865,24.9767971 98.5950865,27.8353048 L99.1574159,27.8353048 L99.1574159,12.3712466 L98.5950865,12.3712466 C98.5950865,15.2297543 98.4545042,17.2916288 96.8143768,18.8848954 C95.7834396,19.9158326 93.6747044,19.7752502 93.6747044,19.7752502 L93.6747044,0.609190173 C96.7206552,0.609190173 98.1733395,0.796633304 99.9540492,2.53048226 C102.015924,4.59235669 102.062784,10.9185623 102.062784,10.9185623 L102.578253,10.9185623 L102.578253,-7.91198938e-15 L85.6146498,-7.91198938e-15 L85.6146498,0.609190173 L88.7543222,0.609190173 L88.7543222,40.6751593 L88.7543222,40.6751593 L88.7543222,40.6751593 L88.7543222,40.6751593 Z" id="path18"></path>
        </g>
    </g>
</svg>