<svg xmlns="http://www.w3.org/2000/svg" width="280" height="61" viewBox="0 0 280 61"><defs><style>.cls-1{fill:#1e306e;fill-rule:evenodd;}.cls-2{fill:none;}</style></defs><g id="Layer_2" data-name="Layer 2"><g id="Layer_1-2" data-name="Layer 1"><g id="Page-1"><path id="Fill-1" class="cls-1" d="M67.72,37.65H62.53V31.4H58.47V47.29h4.06V41h5.19v6.28h3.49V31.4H67.72v6.25"/><path id="Fill-2" class="cls-1" d="M157.78,47.29h9.66V43.93h-6.17V41h6.17V37.63h-6.17V34.76h6.17V31.4h-9.66V47.29"/><path id="Fill-3" class="cls-1" d="M99.8,41.88a2.33,2.33,0,0,1-2.36,2.34,2.26,2.26,0,0,1-2.29-2.34V31.4H91.66V41.69c0,3.59,2.22,5.81,5.8,5.81s5.83-2.22,5.83-5.81V31.4H99.8V41.88"/><path id="Fill-4" class="cls-1" d="M81.4,31.19a8.16,8.16,0,1,0,8.14,8.15,8.14,8.14,0,0,0-8.14-8.15Zm0,12.86a4.71,4.71,0,1,1,4.67-4.71,4.68,4.68,0,0,1-4.67,4.71Z"/><path id="Fill-5" class="cls-1" d="M213,38.09v3.37h4.7a4,4,0,0,1-4,2.63A4.65,4.65,0,0,1,209,39.34a4.71,4.71,0,0,1,4.66-4.75,4.37,4.37,0,0,1,4.13,2.5l.15.26,3-1.85-.13-.24a8.13,8.13,0,0,0-7.22-4.07,8.16,8.16,0,1,0,.13,16.31,7.69,7.69,0,0,0,7.77-8V38.09H213"/><path id="Fill-6" class="cls-1" d="M199.83,41l-6.06-9.6H190V47.29h3.49V37.35l6.27,9.94h3.54V31.4h-3.48V41"/><path id="Fill-7" class="cls-1" d="M183.6,31.4h3.49V47.29H183.6Z"/><path id="Fill-8" class="cls-1" d="M145.4,47.29h9.65V43.93h-6.17V41h6.17V37.63h-6.17V34.76h6.17V31.4H145.4V47.29"/><path id="Fill-9" class="cls-1" d="M112.14,37.62l-.33-.11c-1.6-.52-2.58-.89-2.58-1.74s.69-1.41,1.81-1.41a2.8,2.8,0,0,1,2.49,1.32l.17.26,2.91-2.21-.22-.23A6.88,6.88,0,0,0,111,31.19c-3.07,0-5.38,2-5.38,4.69,0,3.25,2.62,4,4.54,4.64l.25.08c1.46.44,2.72.83,2.72,1.81a1.79,1.79,0,0,1-2,1.73,3.54,3.54,0,0,1-3.07-1.92l-.17-.28-3.16,2.49.2.22a7.88,7.88,0,0,0,6.22,2.85c2.71,0,5.59-1.78,5.59-5.07s-2.89-4.25-4.62-4.81"/><path id="Fill-10" class="cls-1" d="M175.72,31.4h-5.55V47.29h3.49V42.92h2a5.76,5.76,0,1,0,0-11.52Zm-2.06,3.28h1.85a2.48,2.48,0,1,1,0,5h-1.85v-5Z"/><path id="Fill-11" class="cls-1" d="M118.93,47.29h9.65V43.93h-6.16V41h6.16V37.63h-6.16V34.76h6.16V31.4h-9.65V47.29"/><path id="Fill-12" class="cls-1" d="M143.61,31.4h-4.28L134.8,37V31.4h-3.49V47.29h3.49V41.77l1.26-1.58,3.89,7.1h4l-5.39-9.62,5.08-6.27"/><path id="Fill-13" class="cls-1" d="M173.41,21.66c0-4.76-3.37-7.95-8.39-7.95h-4.46V29.6h4.59c4.78,0,8.26-3.34,8.26-7.94ZM164.69,17c3.32,0,5.23,1.7,5.23,4.67,0,2.79-2,4.66-5.11,4.66h-.76V17Z"/><path id="Fill-14" class="cls-1" d="M132.44,29.81a8.16,8.16,0,1,0-8.11-8.15,8.15,8.15,0,0,0,8.11,8.15Zm0-12.86a4.71,4.71,0,1,1-4.64,4.71A4.7,4.7,0,0,1,132.44,17Z"/><path id="Fill-15" class="cls-1" d="M150.26,13.5a8.16,8.16,0,1,0,8.13,8.16,8.15,8.15,0,0,0-8.13-8.16Zm0,12.87a4.71,4.71,0,1,1,4.66-4.71,4.68,4.68,0,0,1-4.66,4.71Z"/><path id="Fill-16" class="cls-1" d="M115,29.81a7.69,7.69,0,0,0,7.78-7.94V20.41h-8.53v3.36h4.7a4,4,0,0,1-4,2.64,4.65,4.65,0,0,1-4.77-4.75,4.72,4.72,0,0,1,4.67-4.75A4.37,4.37,0,0,1,119,19.4l.14.27,3.06-1.86-.14-.24a8.11,8.11,0,0,0-7.21-4.07,8,8,0,0,0-8.11,8.16A8,8,0,0,0,115,29.81"/></g><rect class="cls-2" width="280" height="61"/></g></g></svg>