<?xml version="1.0" encoding="UTF-8"?>
<svg width="146px" height="61px" viewBox="0 0 146 61" version="1.1" xmlns="http://www.w3.org/2000/svg" xmlns:xlink="http://www.w3.org/1999/xlink">
    <!-- Generator: Sketch 63.1 (92452) - https://sketch.com -->
    <title>mashable_logo_03</title>
    <desc>Created with Sketch.</desc>
    <defs>
        <polygon id="path-1" points="0.196404762 0.147142857 17.5773571 0.147142857 17.5773571 19.8102143 0.196404762 19.8102143"></polygon>
        <polygon id="path-3" points="0.196404762 0.147142857 17.5773571 0.147142857 17.5773571 19.8102143 0.196404762 19.8102143"></polygon>
        <polygon id="path-5" points="0.196404762 0 17.5773571 0 17.5773571 24.2864048 0.196404762 24.2864048"></polygon>
        <polygon id="path-7" points="0.196404762 0.147142857 19.3154524 0.147142857 19.3154524 19.8102143 0.196404762 19.8102143"></polygon>
        <polygon id="path-9" points="0.196404762 0 19.3154524 0 19.3154524 24.2864048 0.196404762 24.2864048"></polygon>
        <polygon id="path-11" points="0.196404762 0 7.14878571 0 7.14878571 24.2864048 0.196404762 24.2864048"></polygon>
        <polygon id="path-13" points="0.196404762 0.147142857 18.5489524 0.147142857 18.5489524 19.8102143 0.196404762 19.8102143"></polygon>
    </defs>
    <g id="mashable_logo_03" stroke="none" stroke-width="1" fill="none" fill-rule="evenodd">
        <g id="Mashable_Logo" transform="translate(1.000000, 18.000000)">
            <polygon id="Path" fill="#1E306E" fill-rule="nonzero" points="19.0628333 0.590952381 14.091881 13.7552857 9.09138095 0.590952381 0.541690476 0.590952381 0.541690476 24.4497857 6.69454762 24.4497857 6.69454762 8.67657143 12.7361667 24.4497857 15.4510714 24.4497857 21.4596667 8.67657143 21.4596667 24.4497857 27.6125238 24.4497857 27.6125238 0.590952381"></polygon>
            <g id="Clipped" transform="translate(28.351214, 5.067143)">
                <mask id="mask-2" fill="white">
                    <use xlink:href="#path-1"></use>
                </mask>
                <g id="a"></g>
                <path d="M11.7390952,14.9487619 L11.7390952,13.4070714 C11.169,12.5849524 9.87933333,12.1904048 8.66961905,12.1904048 C7.23742857,12.1904048 5.913,12.8369762 5.913,14.1944286 C5.913,15.551881 7.23742857,16.1984524 8.66961905,16.1984524 C9.87933333,16.1984524 11.169,15.7691429 11.7390952,14.9470238 L11.7390952,14.9487619 Z M11.7390952,19.3809048 L11.7390952,17.6636667 C10.6666905,18.948119 8.59488095,19.8102143 6.37533333,19.8102143 C3.72821429,19.8102143 0.44147619,17.9834762 0.44147619,14.1196905 C0.44147619,9.93783333 3.72647619,8.54561905 6.37533333,8.54561905 C8.66961905,8.54561905 10.7066667,9.293 11.7390952,10.5826667 L11.7390952,8.86542857 C11.7390952,7.36371429 10.456381,6.32607143 8.23509524,6.32607143 C6.51785714,6.32607143 4.80061905,7.00392857 3.40840476,8.18583333 L1.37135714,4.35680952 C3.59090476,2.46228571 6.55783333,1.67492857 9.1997381,1.67492857 C13.3485714,1.67492857 17.2523333,3.21661905 17.2523333,8.58038095 L17.2523333,19.3826429 L11.7390952,19.3826429 L11.7390952,19.3809048 Z" id="Shape" fill="#1E306E" fill-rule="nonzero" mask="url(#mask-2)"></path>
            </g>
            <g id="Clipped" transform="translate(45.732167, 5.067143)">
                <mask id="mask-4" fill="white">
                    <use xlink:href="#path-3"></use>
                </mask>
                <g id="c"></g>
                <path d="M0.61702381,17.1283333 L2.90609524,13.1967619 C4.1957619,14.3369524 6.94542857,15.5188571 8.98942857,15.5188571 C10.6319286,15.5188571 11.3115238,15.0495714 11.3115238,14.3021905 C11.3115238,12.157381 1.26359524,14.3717143 1.26359524,7.36371429 C1.26359524,4.32204762 3.91071429,1.67492857 8.66266667,1.67492857 C11.5965714,1.67492857 14.0264286,2.60480952 15.8879286,3.9622619 L13.7830952,7.8677619 C12.7437143,6.86140476 10.7761905,5.96628571 8.70438095,5.96628571 C7.41471429,5.96628571 6.55783333,6.46859524 6.55783333,7.14819048 C6.55783333,9.04271429 16.5657857,7.07866667 16.5657857,14.1614048 C16.5657857,17.4464048 13.6735952,19.8102143 8.73740476,19.8102143 C5.62795238,19.8102143 2.4455,18.7708333 0.61702381,17.1283333" id="Path" fill="#1E306E" fill-rule="nonzero" mask="url(#mask-4)"></path>
            </g>
            <g id="Clipped" transform="translate(63.113119, 0.590952)">
                <mask id="mask-6" fill="white">
                    <use xlink:href="#path-5"></use>
                </mask>
                <g id="e"></g>
                <path d="M11.9563571,23.8588333 L11.9563571,13.8004762 C11.9563571,11.697381 10.8491905,11.0177857 9.0902381,11.0177857 C7.4825,11.0177857 6.41009524,11.9076905 5.77047619,12.6950476 L5.77047619,23.8570952 L0.257238095,23.8570952 L0.257238095,0 L5.77047619,0 L5.77047619,8.69047619 C6.80290476,7.47380952 8.84690476,6.15285714 11.7390952,6.15285714 C15.677619,6.15285714 17.4626429,8.37066667 17.4626429,11.5548571 L17.4626429,23.8588333 L11.9563571,23.8588333 Z" id="Path" fill="#1E306E" fill-rule="nonzero" mask="url(#mask-6)"></path>
            </g>
            <g id="Clipped" transform="translate(80.494071, 5.067143)">
                <mask id="mask-8" fill="white">
                    <use xlink:href="#path-7"></use>
                </mask>
                <g id="g"></g>
                <path d="M12.4934286,14.9487619 L12.4934286,13.4070714 C11.9215952,12.5849524 10.6336667,12.1904048 9.417,12.1904048 C7.98480952,12.1904048 6.66038095,12.8369762 6.66038095,14.1944286 C6.66038095,15.551881 7.98480952,16.1984524 9.417,16.1984524 C10.6336667,16.1984524 11.9215952,15.7691429 12.4934286,14.9470238 L12.4934286,14.9487619 Z M12.4934286,19.3809048 L12.4934286,17.6636667 C11.4192857,18.948119 9.3422619,19.8102143 7.12966667,19.8102143 C4.48080952,19.8102143 1.18885714,17.9834762 1.18885714,14.1196905 C1.18885714,9.93783333 4.48080952,8.54561905 7.12966667,8.54561905 C9.417,8.54561905 11.4540476,9.293 12.4934286,10.5826667 L12.4934286,8.86542857 C12.4934286,7.36371429 11.2020238,6.32607143 8.98942857,6.32607143 C7.27219048,6.32607143 5.55321429,7.00392857 4.15578571,8.18583333 L2.1187381,4.35680952 C4.33828571,2.46228571 7.30521429,1.67492857 9.95407143,1.67492857 C14.1011667,1.67492857 17.9979762,3.21661905 17.9979762,8.58038095 L17.9979762,19.3826429 L12.4934286,19.3826429 L12.4934286,19.3809048 Z" id="Shape" fill="#1E306E" fill-rule="nonzero" mask="url(#mask-8)"></path>
            </g>
            <g id="Clipped" transform="translate(99.613119, 0.590952)">
                <mask id="mask-10" fill="white">
                    <use xlink:href="#path-9"></use>
                </mask>
                <g id="i"></g>
                <path d="M9.46392857,19.4249524 C11.6435,19.4249524 13.2929524,17.8085238 13.2929524,15.201381 C13.2929524,12.629 11.6435,11.0125714 9.46392857,11.0125714 C8.28202381,11.0125714 6.85678571,11.6574048 6.17197619,12.5872857 L6.17197619,17.8832619 C6.85678571,18.8131429 8.2837619,19.4249524 9.46392857,19.4249524 L9.46392857,19.4249524 Z M0.665690476,23.8570952 L0.665690476,0 L6.17197619,0 L6.17197619,8.62095238 C7.39814325,7.04278796 9.29228173,6.1294852 11.2906667,6.15285714 C15.6150476,6.15285714 18.9087381,9.55257143 18.9087381,15.201381 C18.9087381,21.0674524 15.5472619,24.2864048 11.2906667,24.2864048 C9.35616667,24.2864048 7.60416667,23.4990476 6.17197619,21.8548095 L6.17197619,23.8588333 L0.665690476,23.8588333 L0.665690476,23.8570952 Z" id="Shape" fill="#1E306E" fill-rule="nonzero" mask="url(#mask-10)"></path>
            </g>
            <g id="Clipped" transform="translate(118.732167, 0.590952)">
                <mask id="mask-12" fill="white">
                    <use xlink:href="#path-11"></use>
                </mask>
                <g id="k"></g>
                <polygon id="Path" fill="#1E306E" fill-rule="nonzero" mask="url(#mask-12)" points="0.896857143 0 6.40314286 0 6.40314286 23.8588333 0.896857143 23.8588333"></polygon>
            </g>
            <g id="Clipped" transform="translate(125.684548, 5.067143)">
                <mask id="mask-14" fill="white">
                    <use xlink:href="#path-13"></use>
                </mask>
                <g id="m"></g>
                <path d="M9.71595238,6.10880952 C7.31738095,6.10880952 6.3892381,7.541 6.1702381,8.79069048 L13.2929524,8.79069048 C13.1452143,7.57402381 12.2553095,6.10880952 9.71595238,6.10880952 M0.556190476,10.7251905 C0.556190476,5.72121429 4.31047619,1.67492857 9.71595238,1.67492857 C14.8276905,1.67492857 18.5489524,5.42921429 18.5489524,11.2952857 L18.5489524,12.5519286 L6.24671429,12.5519286 C6.63952381,14.0866667 8.07171429,15.3763333 10.5710952,15.3763333 C11.7877619,15.3763333 13.7900476,14.8392619 14.7946667,13.909381 L17.1845476,17.5211429 C15.4725238,19.055881 12.6081429,19.8102143 9.9662381,19.8102143 C4.6372381,19.8102143 0.556190476,16.3409762 0.556190476,10.7251905" id="Shape" fill="#1E306E" fill-rule="nonzero" mask="url(#mask-14)"></path>
            </g>
        </g>
    </g>
</svg>