<?xml version="1.0" encoding="UTF-8"?>
<svg width="280px" height="61px" viewBox="0 0 280 61" version="1.1" xmlns="http://www.w3.org/2000/svg" xmlns:xlink="http://www.w3.org/1999/xlink">
    <!-- Generator: Sketch 63.1 (92452) - https://sketch.com -->
    <title>popsugar_logo_03</title>
    <desc>Created with Sketch.</desc>
    <g id="popsugar_logo_03" stroke="none" stroke-width="1" fill="none" fill-rule="evenodd">
        <g id="popsugar-vector-logo" transform="translate(0.000000, 18.000000)" fill="#1E306E" fill-rule="nonzero">
            <path d="M12.8354978,13.3320756 C11.4502165,14.6045182 9.56709957,15.0606769 7.42424242,15.0606769 L4.87012987,15.0606769 L4.87012987,23.559633 L0,23.559633 L0,0.559633028 L7.42424242,0.559633028 C9.56709957,0.559633028 11.4502165,1.01579169 12.8354978,2.28823428 C14.2207792,3.56067687 15,5.31328647 15,7.7861466 C15,10.2830151 14.2207792,12.0356247 12.8354978,13.3320756 Z M9.06926407,5.36130317 C8.46320346,4.90514451 7.77056277,4.73708605 6.73160173,4.73708605 L4.84848485,4.73708605 L4.84848485,10.9072322 L6.73160173,10.9072322 C7.79220779,10.9072322 8.48484848,10.7391737 9.06926407,10.2830151 C9.63203463,9.82685641 10.0649351,8.98656413 10.0649351,7.81015495 C10.0649351,6.63374576 9.65367965,5.84147019 9.06926407,5.36130317 Z" id="p"></path>
            <path d="M42.9999162,0.559633028 C36.7573477,0.559633028 32,4.88707585 32,12.0835416 C32,19.2800072 36.7573477,23.559633 42.9999162,23.559633 C49.2424846,23.559633 53.9999165,19.2800072 53.9999165,12.0835416 C54.0230389,4.88707585 49.2424846,0.559633028 42.9999162,0.559633028 Z M42.9999162,18.8974709 C39.4957235,18.8974709 36.9894135,16.3392588 36.9894135,12.0835416 C36.9894135,7.8278243 39.4957235,5.00661847 42.9999162,5.00661847 C46.5041089,5.00661847 49.0104189,7.8278243 49.0104189,12.0835416 C49.0104189,16.3392588 46.5041089,18.8974709 42.9999162,18.8974709 Z" id="Shape"></path>
            <g id="p-link" transform="translate(70.000000, 0.559633)">
                <path d="M14.4014286,12.685567 C12.8471429,13.942268 10.7342857,14.3927835 8.33,14.3927835 L5.46428571,14.3927835 L5.46428571,22.7865979 L0,22.7865979 L0,0.0711340206 L8.33,0.0711340206 C10.7342857,0.0711340206 12.8471429,0.521649485 14.4014286,1.77835052 C15.9557143,3.03505155 16.83,4.76597938 16.83,7.20824742 C16.83,9.6742268 15.9557143,11.4051546 14.4014286,12.685567 Z M10.1757143,4.81340206 C9.49571429,4.3628866 8.71857143,4.19690722 7.55285714,4.19690722 L5.44,4.19690722 L5.44,10.2907216 L7.55285714,10.2907216 C8.74285714,10.2907216 9.52,10.1247423 10.1757143,9.6742268 C10.8071429,9.22371134 11.2928571,8.39381443 11.2928571,7.23195876 C11.2928571,6.07010309 10.8314286,5.28762887 10.1757143,4.81340206 Z" id="p"></path>
            </g>
            <path d="M118.296562,21.7224961 C116.664756,22.9870189 114.545845,23.559633 112.110315,23.559633 C108.797994,23.559633 105.851003,21.8656496 104,20.1955251 L106.654728,16.3780978 C108.310888,18.0720812 110.868195,19.1934505 112.621777,19.1934505 C114.351003,19.1934505 115.666189,18.3822471 115.666189,16.902994 C115.666189,15.3760231 113.985673,14.803409 112.987106,14.4455251 C111.988539,14.0876413 110.283668,13.5150272 109.504298,13.1810023 C108.944126,12.9185542 107.775072,12.4890936 106.80086,11.5585957 C105.802292,10.6519567 105.022923,9.36357494 105.022923,7.24013095 C105.022923,5.09282805 106.070201,3.42270357 107.409742,2.34905211 C108.700573,1.27540066 110.795129,0.559633028 113.425501,0.559633028 C116.080229,0.559633028 119.124642,1.80029693 120.683381,3.30340896 L118.393983,6.97768282 C117.078797,5.68930108 115.008596,4.71108531 113.303725,4.71108531 C111.574499,4.71108531 110.332378,5.35527618 110.332378,6.71523469 C110.332378,8.07519319 111.623209,8.60008946 112.646132,8.9818322 C113.644699,9.36357494 115.325215,9.96004797 116.055874,10.246355 C116.689112,10.4849442 118.19914,11.0575583 119.222063,12.059633 C120.17192,12.990131 121,14.3500895 121,16.3780978 C120.975645,18.5254007 119.952722,20.4579733 118.296562,21.7224961 Z" id="Path"></path>
            <path d="M154,13.7501092 C154,16.9405854 153.480552,19.1310616 151.944793,20.8691568 C150.454203,22.5834426 148.12798,23.559633 145.011292,23.559633 C141.87202,23.559633 139.568381,22.5834426 138.032622,20.8691568 C136.542033,19.1310616 136,16.9405854 136,13.7501092 L136,0.559633028 L141.081556,0.559633028 L141.081556,13.7501092 C141.081556,15.3453473 141.194479,16.6072521 141.917189,17.512014 C142.59473,18.3691568 143.588457,18.9167759 144.988708,18.9167759 C146.388959,18.9167759 147.382685,18.3691568 148.060226,17.512014 C148.782936,16.5834426 148.895859,15.3453473 148.895859,13.7501092 L148.895859,0.559633028 L153.977415,0.559633028 L153.977415,13.7501092 L154,13.7501092 Z" id="Path"></path>
            <path d="M193,19.7422056 C191.854928,20.7442803 189.126246,23.559633 182.864895,23.559633 C176.554817,23.559633 171,19.4797575 171,12.0357741 C171,4.5917907 176.554817,0.559633028 182.913621,0.559633028 C188.955703,0.559633028 191.562569,3.66129278 192.293466,4.44863718 L188.760797,7.45486124 C187.810631,6.42892763 186.007752,4.90195668 182.913621,4.90195668 C179.259136,4.90195668 176.408638,7.52643801 176.408638,12.059633 C176.408638,16.592828 179.307863,19.2173094 183.011074,19.2173094 C186.714286,19.2173094 187.761905,17.7857741 187.761905,17.7857741 L187.761905,14.4693841 L182.962348,14.4693841 L182.962348,10.4849442 L192.975637,10.4849442 L192.975637,19.7422056 L193,19.7422056 Z" id="Path"></path>
            <path d="M231,23.559633 L225.12356,23.559633 L223.485864,18.9356747 L215.249215,18.9356747 L213.611518,23.559633 L208,23.559633 L216.694241,0.559633028 L222.305759,0.559633028 L231,23.559633 Z M222.233508,14.7429664 L219.367539,6.50129969 L216.501571,14.7429664 L222.233508,14.7429664 Z" id="Shape"></path>
            <path d="M265,23.559633 L258.802111,23.559633 L254.029024,14.7577561 L252.343008,14.7577561 L252.343008,23.559633 L247,23.559633 L247,0.559633028 L255.168865,0.559633028 C257.709763,0.559633028 259.680739,1.08726598 261.176781,2.19049851 C262.69657,3.31771436 263.693931,5.16442969 263.693931,7.44284471 C263.693931,11.8078082 260.915567,13.5106236 259.253298,14.0382566 L265,23.559633 Z M257.139842,5.3323129 C256.474934,4.82866327 255.620053,4.73273 254.408971,4.73273 L252.295515,4.73273 L252.295515,10.6326257 L254.408971,10.6326257 C255.620053,10.6326257 256.474934,10.4887258 257.139842,10.0090595 C257.828496,9.50540988 258.30343,8.88184366 258.30343,7.68267787 C258.30343,6.50749538 257.852243,5.83596254 257.139842,5.3323129 Z" id="Shape"></path>
            <circle id="Oval" cx="275.5" cy="20.059633" r="4.5"></circle>
        </g>
    </g>
</svg>