<svg xmlns="http://www.w3.org/2000/svg" width="280" height="61" viewBox="0 0 280 61"><defs><style>.cls-1{fill:#1e306e;}.cls-2{fill:none;}</style></defs><g id="Layer_2" data-name="Layer 2"><g id="Layer_1-2" data-name="Layer 1"><path class="cls-1" d="M71.26,21.7a4,4,0,0,0-4.07-4.2c-.54,0-1.91,0-2.39.08l-1.61,9.94c.3,0,.8,0,1.07,0C68.07,27.52,71.26,25,71.26,21.7Zm28.45-6.15-3.2,19.53c-.14.79-.15,1.11,1.37,1.11l-.38,2.5H94.87c1.44.67,2.85,1.7,2.85,3.07,0,2.61-2.57,4.7-9.3,4.7-12.47,0-20.71-6.37-23.53-15.93H62.68l-1,6c-.17,1.15-.16,1.52,1.89,1.66L65,38.3l-.58,2.94c-2-.12-4.28-.23-6.53-.22-2,0-4.18.11-6.2.22l.48-2.94c.53,0,.89,0,1.24-.06a4.36,4.36,0,0,0,.94-.19,1.52,1.52,0,0,0,1.15-1.28l3-18.34a13.77,13.77,0,0,0-2.53.71c-.68.27-1.41.88-1.41,1.38a.9.9,0,0,0,.13.51,1.1,1.1,0,0,1,.26.58.57.57,0,0,1-.16.38,3.36,3.36,0,0,1-2.37,1,2.19,2.19,0,0,1-2.18-2.18v0c0-3.43,4.29-4.8,7-5.34a54.45,54.45,0,0,1,9.36-.9c6.33,0,10.93,2,10.93,7,0,4.12-3.12,6.77-6.46,7.91,2.54,7.93,8.76,13.89,16.73,13.89,3,0,4.1-1.3,4.1-2.57a2,2,0,0,0-1.89-2H88.76l.48-2.5c.89,0,1.86-.08,2-1l2.28-14.08c0-.25-.06-.35-.32-.35H91.09l.42-2.24,7.94-3.23.26.26ZM214.47,36.19l-.48,2.5h-8.55l.42-2.5c1.31,0,1.5-.11,1.67-1.24l.93-6.15c.16-1.05-.48-1.41-1.09-1.41a3.21,3.21,0,0,0-2.75,2.79l-.77,5c-.12.7,0,1,1.47,1l-.39,2.5h-8.67l.45-2.5c1.57,0,1.83-.23,2-1.18l1-6.34c.07-.44,0-.51-.35-.51h-1.89l.39-2.18,7.73-3.32.23.22-.35,1.95a7.26,7.26,0,0,1,4.77-2.14c2.22,0,3.71,2.09,3.71,4.32a9.75,9.75,0,0,1-.16,1.7l-1,6.23c-.17,1.05,0,1.24,1.7,1.24ZM183.15,23.43l-1.47,3.13a4.66,4.66,0,0,0-1.77-.35h-1.75L177,33.47c-.21,1.31,0,1.54.71,1.54s1.47-.38,2.81-1.6l1.15,2.27c-1.58,1.68-3.61,3.46-6.17,3.46-2.73,0-3.94-1.56-3.94-4a13.74,13.74,0,0,1,.16-1.72l1.15-7.17-2,0,.48-2.75,1.91,0,.45-2.91L179,18.47l.35.35-.74,4.64,4.58,0Zm-10.53-7.84A65,65,0,0,0,171,22.72h-3.08a8.37,8.37,0,0,0,.39-2.21c0-1.33-1.49-2.17-3.74-2.17s-3.85,1.18-3.88,2.66.51,2,2.28,3.23L166,26.4c2.85,2,4.57,3.91,4.52,7.17-.1,5.42-4.69,8.15-10.57,8.15a14.73,14.73,0,0,1-3.45-.44,10.36,10.36,0,0,0-2.4-.44,3.75,3.75,0,0,0-1.79.48l-.48-.27q-.59-3.94-1.42-7.83l3.21-.77c.84,4,2.68,5.79,6.68,5.79,2.62,0,4-1.28,4.07-3.32s-1-2.78-2.85-4c-.83-.53-1.66-1.06-2.43-1.59a15.2,15.2,0,0,1-2.18-1.73,7.2,7.2,0,0,1-2-5.44c.07-4.26,3.88-7.27,9-7.27,2.17,0,3.85.54,5.8.65a10.88,10.88,0,0,0,2.43-.29l.44.35Zm-55.29,2.59c0,2-2.18,3.77-4.45,3.77-1.15,0-2.49-.48-2.49-2.11,0-2.41,2.45-4,4.48-4A2.33,2.33,0,0,1,117.33,18.18Zm-.51,4.7-1.95,11.84c-.22,1.33-.25,1.47,1.66,1.47l-.39,2.5h-8.92l.38-2.5c1.47,0,1.9-.35,2-1.15l1-6.47c.06-.37.07-.41-.31-.41h-2l.38-2.18,8-3.32Zm-7.93-7.42-3.14,19.17c-.23,1.42-.08,1.56,1.35,1.56l-.39,2.49H98l.39-2.49c1.53,0,1.91-.29,2.08-1.37l2.18-13.54c.07-.44,0-.51-.32-.51h-2l.39-2.21,8-3.32.23.23ZM224.61,27.55c0-1.41-.62-1.82-1.44-1.82s-2.28,1.15-2.78,3.72Zm5.09.77L220,32.8c.2,1.67,1.13,2.78,2.66,2.78s2.14-.89,2.14-1.31a.81.81,0,0,0-.16-.5.84.84,0,0,1-.22-.52.56.56,0,0,1,.13-.39,2.92,2.92,0,0,1,2.18-.92,2.1,2.1,0,0,1,2.14,2.14c0,2.81-2.76,5.09-7.07,5.09s-7.3-2.58-7.3-7.46c0-4.37,3.9-9.08,8.77-9.08,4.08,0,5.85,2,6.46,5.69Zm-38,0c0-1.76-.57-2.56-1.62-2.56-1.52,0-3.17,3.22-3.17,7.81,0,1.75.59,2.52,1.63,2.52,1.61,0,3.17-3.72,3.17-7.77m5.53,1.28c0,4.81-3.46,9.63-8.95,9.63-4.18,0-6.85-2.44-6.85-7.3a9.1,9.1,0,0,1,8.9-9.34c4,0,6.91,2.54,6.91,7M143.38,41.16c0-.37-.34-.62-1.12-.62s-1.8.13-2.72.13a8.8,8.8,0,0,1-4.07-.83,2.25,2.25,0,0,0-1,1.86c0,1,1.36,1.88,2.85,1.88,4,0,6-1.44,6-2.42m.89-14c0-.88-.34-1.66-1.06-1.66-1.63,0-2.33,3-2.33,4.83,0,1.25.26,1.79,1.12,1.79,1.44,0,2.27-3.3,2.27-5m10-2.61c0,1-.91,2.27-1.77,2.27-.29,0-.38-.21-.54-.42a.75.75,0,0,0-.39-.28,1,1,0,0,0-.38-.07c-.93,0-1.59,1.05-1.59,2l0,.64a5.61,5.61,0,0,1-.84,2.85,7.73,7.73,0,0,1-6.49,3.58,8.21,8.21,0,0,1-2.91-.41,1.06,1.06,0,0,0-.27.64c0,.65.53.79,1.32.79,1.66,0,3.14-.25,4.67-.25,2.63,0,4.52,1.3,4.52,3.72,0,4.3-6.56,6.91-12.68,6.91-3.63,0-7.13-1-7.13-4.13,0-1.52.89-2.71,2.88-3.68h-7.23l.41-2.5c1.46,0,1.6-.14,1.73-1.06l1-6.39a1.1,1.1,0,0,0-1.08-1.35A3.24,3.24,0,0,0,124.76,30l-.84,5.29c-.1.65,0,.95,1.41.95l-.39,2.5h-8.28l.41-2.5c1.44,0,1.48-.21,1.6-.95l1.06-6.6c.07-.44,0-.48-.32-.48h-2l.41-2.21,7.94-3.29.23.22-.32,1.93a7.47,7.47,0,0,1,4.67-2.15c2.53,0,3.77,2.37,3.77,4.54,0,.24-.06.83-.09,1.06l-1.09,6.82c-.13.82.45,1.06,1.24,1.11A4.28,4.28,0,0,1,137,33.35a5.3,5.3,0,0,1-1.51-3.9c0-4.32,3.89-6.95,7.84-6.95A6.19,6.19,0,0,1,148.59,25a4.28,4.28,0,0,1,3.52-2.49,2,2,0,0,1,2.14,2M85.43,28.29c0-1.76-.59-2.56-1.63-2.56-1.53,0-3.17,3.22-3.17,7.81,0,1.75.6,2.53,1.64,2.53,1.61,0,3.16-3.72,3.16-7.78M91,29.57c0,4.81-3.46,9.63-9,9.63-4.18,0-6.85-2.44-6.85-7.3a9.1,9.1,0,0,1,8.9-9.34c4,0,6.91,2.54,6.91,7"/><rect class="cls-2" width="280" height="61"/></g></g></svg>