<?xml version="1.0" encoding="utf-8"?>
<!-- Generator: Adobe Illustrator 24.1.2, SVG Export Plug-In . SVG Version: 6.00 Build 0)  -->
<svg version="1.1" id="Layer_1" xmlns="http://www.w3.org/2000/svg" xmlns:xlink="http://www.w3.org/1999/xlink" x="0px" y="0px"
	 viewBox="0 0 88 88" style="enable-background:new 0 0 88 88;" xml:space="preserve">
<style type="text/css">
	.st0{fill:none;}
	.st1{fill:#D7ECF7;}
	.st2{fill:#1E306E;}
</style>
<g>
	<g>
		<g>
			<rect class="st0" width="88" height="88"/>
		</g>
	</g>
	<g>
		<g>
			<path class="st1" d="M74.8,59.2c-0.2,1.3-1.3,2.3-2.6,2.3H16.1v-1.8c0-0.2,0.2-0.4,0.4-0.4H74.8z"/>
			<path class="st1" d="M36.5,63.3v1.8H18.1c-1,0-1.9-0.8-2-1.8H36.5z"/>
			<rect x="38.3" y="63.3" class="st1" width="11.4" height="1.8"/>
			<path class="st1" d="M77.8,59.6V63c0,1.1-0.9,2-2,2H51.5v-1.8h20.7c2.3,0,4.3-1.8,4.5-4.1h0.8C77.6,59.2,77.8,59.3,77.8,59.6z"/>
		</g>
		<g>
			<g>
				<path class="st1" d="M82,36.6H68.1c-1.4,0-2.6-1.2-2.6-2.6V20.2c0-1.4,1.2-2.6,2.6-2.6H82c1.4,0,2.6,1.2,2.6,2.6V34
					C84.6,35.5,83.4,36.6,82,36.6z"/>
			</g>
			<g>
				<g>
					<path class="st2" d="M61.3,35c-1.3,0-2.3-0.2-2.4-0.3c-0.4-0.1-0.7-0.5-0.7-0.9c0-0.4,0.3-0.8,0.7-0.9c3-0.8,2.9-3.6,2.9-3.7
						l0-12c0-1.7,1.4-3.1,3.1-3.1h14.4c1.7,0,3.1,1.4,3.1,3.1v14.4c0,1.7-1.4,3.1-3.1,3.1H68.5c-0.5,0-0.9-0.4-0.9-0.9
						S68,33,68.5,33h10.8c0.7,0,1.3-0.6,1.3-1.3V17.3c0-0.7-0.6-1.3-1.3-1.3H64.8c-0.7,0-1.3,0.6-1.3,1.3v12
						c0.1,0.9-0.3,2.6-1.5,3.9c1-0.1,2-0.4,2.7-1.1c0.4-0.4,0.9-0.4,1.3,0c0.4,0.4,0.4,0.9,0,1.3C64.8,34.7,62.9,35,61.3,35z"/>
				</g>
			</g>
			<g>
				<g>
					<path class="st2" d="M71.7,31.3h-2.4c-0.3,0-0.5-0.2-0.6-0.4s-0.1-0.5,0.1-0.7l1.6-2h-1c-0.4,0-0.7-0.3-0.7-0.7
						s0.3-0.7,0.7-0.7h2.4c0.3,0,0.5,0.2,0.6,0.4s0.1,0.5-0.1,0.7l-1.6,2h1c0.4,0,0.7,0.3,0.7,0.7S72.1,31.3,71.7,31.3z"/>
				</g>
				<g>
					<path class="st2" d="M77.8,27.5h-3c-0.3,0-0.5-0.2-0.6-0.4c-0.1-0.2-0.1-0.5,0.1-0.7l2-2.5h-1.5c-0.4,0-0.7-0.3-0.7-0.7
						s0.3-0.7,0.7-0.7h3c0.3,0,0.5,0.2,0.6,0.4c0.1,0.2,0.1,0.5-0.1,0.7l-2,2.5h1.5c0.4,0,0.7,0.3,0.7,0.7S78.2,27.5,77.8,27.5z"/>
				</g>
				<g>
					<path class="st2" d="M71.3,22.9h-3.8c-0.3,0-0.5-0.2-0.6-0.4c-0.1-0.3-0.1-0.5,0.1-0.7l2.7-2.8h-2.2c-0.4,0-0.7-0.3-0.7-0.7
						s0.3-0.7,0.7-0.7h3.8c0.3,0,0.5,0.2,0.6,0.4c0.1,0.3,0.1,0.5-0.1,0.7l-2.7,2.8h2.2c0.4,0,0.7,0.3,0.7,0.7S71.7,22.9,71.3,22.9z
						"/>
				</g>
			</g>
		</g>
		<g>
			<g>
				<path class="st2" d="M75.7,38.6c-0.5,0-0.9,0.4-0.9,0.9v15.9H57.2c-0.7-1.1-1.6-2.1-2.7-2.8l-0.6-10.2H56c1.6,0,2.8-1.3,2.8-2.8
					v-0.5c0-1.3-0.9-2.4-2.1-2.8l0.4-2.7c0-6.6-6.1-12.3-13-12.3s-13,5.7-12.9,12.4l0.3,2.6c-1.2,0.3-2.1,1.4-2.1,2.7v0.5
					c0,1.5,1.1,2.6,2.5,2.8c-0.1,1.4,0.3,3.4,2.6,4.6c0,0,0,0,0.1,0l-0.5,5.3c-1.2,0.7-2.2,1.8-3,3h-18V22.7c0-1.5,1.2-2.7,2.7-2.7
					h42.8c0.5,0,0.9-0.4,0.9-0.9s-0.4-0.9-0.9-0.9H15.8c-2.5,0-4.5,2-4.5,4.5v36.1c0,2.5,2,4.5,4.5,4.5h20.6V72h-1.8
					c-0.5,0-0.9,0.4-0.9,0.9s0.4,0.9,0.9,0.9h18.6c0.5,0,0.9-0.4,0.9-0.9S53.8,72,53.3,72h-1.8v-8.7h20.7c2.3,0,4.3-1.8,4.5-4.1
					c0-0.1,0-0.2,0-0.4V39.5C76.7,39,76.3,38.6,75.7,38.6z M54.9,55.5H48l1.3-2.6c0,0,0-0.1,0-0.1C51.4,52.8,53.4,53.8,54.9,55.5z
					 M40.3,47.7c-0.1,0-0.1-0.1-0.1-0.1l-0.2-0.1v0c0.4-0.2,0.7-0.4,1-0.7h0c0.3,0.1,0.6,0.1,0.9,0.1c1.3,0,2.3-0.7,2.3-1.7
					c0-0.9-1-1.7-2.3-1.7c-1.3,0-2.3,0.7-2.3,1.7c0,0.1,0,0.2,0.1,0.3c-0.2,0.2-0.6,0.5-1.2,0.6c-1.2-1.4-1.9-3.1-1.9-5v-2.4h0.1
					c0.4,0,0.8-0.1,1.2-0.2c0.3-0.1,0.7-0.2,1-0.3c0.2-0.1,0.4-0.1,0.5-0.2c0.3-0.1,0.6-0.2,0.9-0.4c0.6-0.3,1.1-0.6,1.6-0.8
					c1.6-0.9,2.8-2.5,3.6-3.7c0.9,1.3,2.4,2.8,5,2.8c0.2,0,0.5,0,0.7,0.1c0,0,0.1,0,0.1,0c0.2,0.1,0.4,0.1,0.6,0.2c0,0,0,0,0,0v4.9
					c0,2.7-1.5,5.2-3.8,6.6C45.6,49.1,42.7,49.1,40.3,47.7z M47.6,49.9l0,2.1l-1.7,3.4h-3.5L40.7,52v-2.1c0.3,0.1,0.6,0.2,0.8,0.3
					c0.3,0.1,0.6,0.2,0.9,0.2c0.3,0.1,0.6,0.1,0.9,0.1c0,0,0,0,0,0h0.1c0.1,0,0.3,0,0.4,0h0.8c0.1,0,0.3,0,0.4,0h0
					c0.3,0,0.6-0.1,0.9-0.1c0.3-0.1,0.6-0.1,0.9-0.2C47.1,50.1,47.3,50.1,47.6,49.9z M52.4,34.5c-0.2-0.1-0.5-0.2-0.7-0.3
					c-0.4-0.1-0.8-0.2-1.3-0.2c-2.9,0-4-3.1-4.1-3.2l-0.8-2.1l-0.9,2c0,0-1.5,3.2-3.6,4.3c-0.3,0.2-0.7,0.4-1,0.6
					c-0.6,0.3-1.2,0.6-1.8,0.8c-0.4,0.1-0.7,0.2-1,0.3c-0.4,0.1-0.8,0.1-1-0.1h0l-0.1-0.1c-0.1-0.2-0.3-0.6-0.3-1.6
					c0-4.6,3.6-8.2,8.4-8.2C48.7,26.9,52.2,30.1,52.4,34.5C52.5,34.5,52.5,34.5,52.4,34.5z M52.6,51.6c-1-0.4-2.1-0.7-3.2-0.7v-2
					c1.2-0.7,2.1-1.8,2.8-2.9L52.6,51.6z M36.4,47.9c0.5,0.1,0.9,0.2,1.3,0.2c0,0,0,0,0.1,0c0.4,0.4,0.7,0.7,1.2,0.9v2
					c-1,0-2,0.2-2.8,0.6L36.4,47.9z M57,39.2v0.5c0,0.5-0.4,1-1,1h-2.4v-2.5H56C56.6,38.2,57,38.6,57,39.2z M44.2,23.3
					c5.8,0,11.1,5,11.1,10.3l-0.4,2.7h-0.6c0-0.1,0-0.2,0-0.4v-0.9c0-5.7-4.4-10-10.2-10S34,29.4,34,35.1c0,0.5,0,0.9,0.1,1.3h-0.7
					l-0.4-2.6C33.1,28.3,38.4,23.3,44.2,23.3z M32.3,40.7c-0.6,0-1-0.4-1-1v-0.5c0-0.6,0.4-1,1-1h2.4v2.5H32.3z M33.8,42.5h1
					c0.2,1.2,0.5,2.2,1.1,3.2c-0.2-0.1-0.3-0.1-0.5-0.2C33.7,44.6,33.7,43.1,33.8,42.5z M39,52.7c0,0.1,0,0.1,0.1,0.2l1.3,2.6h-6.9
					C34.9,53.8,36.9,52.8,39,52.7z M49.7,72H38.3v-8.7h11.4V72z M74.8,58.8c0,0.1,0,0.2,0,0.4c-0.2,1.3-1.3,2.3-2.6,2.3H15.8
					c-1.5,0-2.7-1.2-2.7-2.7v-1.5h61.7V58.8z"/>
			</g>
			<g>
				<path class="st2" d="M39.9,47.4L39.9,47.4l0.2,0.1C40,47.5,40,47.5,39.9,47.4z M43.8,50.6c0.1,0,0.3,0,0.4,0s0.3,0,0.4,0H43.8z"
					/>
			</g>
			<g>
				<path class="st2" d="M42.4,38.9v1c0,0.5-0.4,0.9-0.9,0.9c-0.5,0-0.9-0.4-0.9-0.9v-1c0-0.5,0.4-0.9,0.9-0.9
					C42,38,42.4,38.4,42.4,38.9z"/>
			</g>
			<g>
				<path class="st2" d="M48,38.9v1c0,0.5-0.4,0.9-0.9,0.9c-0.5,0-0.9-0.4-0.9-0.9v-1c0-0.5,0.4-0.9,0.9-0.9
					C47.5,38,48,38.4,48,38.9z"/>
			</g>
			<g>
				<path class="st2" d="M30,37.7"/>
			</g>
		</g>
	</g>
</g>
</svg>
